<svg width="57" height="60" viewBox="0 0 57 60" fill="none" xmlns="http://www.w3.org/2000/svg">
<path d="M13.7591 6.29L13.9891 7.01C13.5558 7.21667 12.9924 7.32 12.2991 7.32C11.1124 7.32 10.2658 6.94667 9.75909 6.2C9.31242 5.52667 9.08909 4.68 9.08909 3.66C9.08909 3.26 9.11909 2.89 9.17909 2.55C9.24576 2.20333 9.35576 1.87333 9.50909 1.56C9.66242 1.24 9.85909 0.966666 10.0991 0.74C10.3391 0.513333 10.6424 0.333333 11.0091 0.2C11.3824 0.0666666 11.8091 0 12.2891 0C12.9224 0 13.4258 0.0766668 13.7991 0.23L13.9891 0.31L13.7591 1.03C13.3991 0.85 12.9358 0.76 12.3691 0.76C10.7891 0.76 9.99909 1.72667 9.99909 3.66C9.99909 5.59333 10.7891 6.56 12.3691 6.56C12.8758 6.56 13.2858 6.49333 13.5991 6.36L13.7591 6.29Z" fill="#1B365D"/>
<path d="M17.2473 4.14C17.5873 4.14 17.9873 4.17667 18.4473 4.25V3.52C18.4473 3.1 18.3306 2.79667 18.0973 2.61C17.8706 2.41667 17.5173 2.32 17.0373 2.32C16.484 2.32 16.024 2.4 15.6573 2.56L15.4673 2.64L15.2873 1.94C15.8273 1.69333 16.4506 1.57 17.1573 1.57C17.884 1.57 18.4273 1.73 18.7873 2.05C19.154 2.36333 19.3373 2.85667 19.3373 3.53V6.89L19.0673 7.01C18.9606 7.05 18.7106 7.11333 18.3173 7.2C17.9373 7.28 17.5473 7.32 17.1473 7.32C15.694 7.32 14.9673 6.79333 14.9673 5.74C14.9673 4.67333 15.7273 4.14 17.2473 4.14ZM17.1673 6.62C17.5473 6.62 17.9206 6.57667 18.2873 6.49L18.4473 6.45V4.94C18.0273 4.88 17.6473 4.85 17.3073 4.85C16.814 4.85 16.4473 4.91667 16.2073 5.05C15.974 5.17667 15.8573 5.41 15.8573 5.75C15.8573 6.07 15.964 6.29667 16.1773 6.43C16.3973 6.55667 16.7273 6.62 17.1673 6.62Z" fill="#1B365D"/>
<path d="M23.7628 1.68V2.41H22.0428V5.36C22.0428 5.77333 22.1128 6.08 22.2528 6.28C22.3994 6.47333 22.6428 6.57 22.9828 6.57C23.2161 6.57 23.4528 6.53 23.6928 6.45L23.8128 6.42L23.9328 7.12C23.6661 7.25333 23.3228 7.32 22.9028 7.32C21.7361 7.32 21.1528 6.66333 21.1528 5.35V2.41H20.4028V1.68H21.1528V0.23L22.0428 0.0799996V1.68H23.7628Z" fill="#1B365D"/>
<path d="M27.1594 4.14C27.4994 4.14 27.8994 4.17667 28.3594 4.25V3.52C28.3594 3.1 28.2427 2.79667 28.0094 2.61C27.7827 2.41667 27.4294 2.32 26.9494 2.32C26.3961 2.32 25.9361 2.4 25.5694 2.56L25.3794 2.64L25.1994 1.94C25.7394 1.69333 26.3627 1.57 27.0694 1.57C27.7961 1.57 28.3394 1.73 28.6994 2.05C29.0661 2.36333 29.2494 2.85667 29.2494 3.53V6.89L28.9794 7.01C28.8727 7.05 28.6227 7.11333 28.2294 7.2C27.8494 7.28 27.4594 7.32 27.0594 7.32C25.6061 7.32 24.8794 6.79333 24.8794 5.74C24.8794 4.67333 25.6394 4.14 27.1594 4.14ZM27.0794 6.62C27.4594 6.62 27.8327 6.57667 28.1994 6.49L28.3594 6.45V4.94C27.9394 4.88 27.5594 4.85 27.2194 4.85C26.7261 4.85 26.3594 4.91667 26.1194 5.05C25.8861 5.17667 25.7694 5.41 25.7694 5.75C25.7694 6.07 25.8761 6.29667 26.0894 6.43C26.3094 6.55667 26.6394 6.62 27.0794 6.62Z" fill="#1B365D"/>
<path d="M33.2049 1.65L33.1449 2.4C33.0115 2.38667 32.8615 2.38 32.6949 2.38C32.4082 2.38 32.0549 2.43333 31.6349 2.54V7.21H30.7449V2.01C31.2115 1.74333 31.8182 1.61 32.5649 1.61C32.8249 1.61 33.0382 1.62333 33.2049 1.65Z" fill="#1B365D"/>
<path d="M36.3489 4.14C36.6889 4.14 37.0889 4.17667 37.5489 4.25V3.52C37.5489 3.1 37.4322 2.79667 37.1989 2.61C36.9722 2.41667 36.6189 2.32 36.1389 2.32C35.5855 2.32 35.1255 2.4 34.7589 2.56L34.5689 2.64L34.3889 1.94C34.9289 1.69333 35.5522 1.57 36.2589 1.57C36.9855 1.57 37.5289 1.73 37.8889 2.05C38.2555 2.36333 38.4389 2.85667 38.4389 3.53V6.89L38.1689 7.01C38.0622 7.05 37.8122 7.11333 37.4189 7.2C37.0389 7.28 36.6489 7.32 36.2489 7.32C34.7955 7.32 34.0689 6.79333 34.0689 5.74C34.0689 4.67333 34.8289 4.14 36.3489 4.14ZM36.2689 6.62C36.6489 6.62 37.0222 6.57667 37.3889 6.49L37.5489 6.45V4.94C37.1289 4.88 36.7489 4.85 36.4089 4.85C35.9155 4.85 35.5489 4.91667 35.3089 5.05C35.0755 5.17667 34.9589 5.41 34.9589 5.75C34.9589 6.07 35.0655 6.29667 35.2789 6.43C35.4989 6.55667 35.8289 6.62 36.2689 6.62Z" fill="#1B365D"/>
<path d="M43.6243 1.82L43.4343 2.51C43.0943 2.38333 42.7143 2.32 42.2943 2.32C41.741 2.32 41.321 2.48 41.0343 2.8C40.9277 2.92667 40.8377 3.09667 40.7643 3.31C40.671 3.62333 40.6243 3.99667 40.6243 4.43C40.6243 4.99667 40.7143 5.47333 40.8943 5.86C41.1143 6.33333 41.5877 6.57 42.3143 6.57C42.7543 6.57 43.1277 6.50333 43.4343 6.37L43.6243 7.07C43.2977 7.23667 42.841 7.32 42.2543 7.32C40.5743 7.32 39.7343 6.36 39.7343 4.44C39.7343 2.52667 40.5743 1.57 42.2543 1.57C42.781 1.57 43.1877 1.63 43.4743 1.75L43.6243 1.82Z" fill="#1B365D"/>
<path d="M47.8643 1.68V2.41H46.1443V5.36C46.1443 5.77333 46.2143 6.08 46.3543 6.28C46.501 6.47333 46.7443 6.57 47.0843 6.57C47.3177 6.57 47.5543 6.53 47.7943 6.45L47.9143 6.42L48.0343 7.12C47.7677 7.25333 47.4243 7.32 47.0043 7.32C45.8377 7.32 45.2543 6.66333 45.2543 5.35V2.41H44.5043V1.68H45.2543V0.23L46.1443 0.0799996V1.68H47.8643Z" fill="#1B365D"/>
<path d="M2.2256 13.922C2.2256 14.162 2.3296 14.386 2.5376 14.594C2.6256 14.658 2.7616 14.73 2.9456 14.81C2.9696 14.818 3.1176 14.874 3.3896 14.978L3.9536 15.146C4.5296 15.314 5.0096 15.502 5.3936 15.71C5.7696 15.91 6.0496 16.174 6.2336 16.502C6.4256 16.83 6.5376 17.262 6.5696 17.798C6.5696 18.614 6.2776 19.246 5.6936 19.694C5.1096 20.134 4.2856 20.354 3.2216 20.354C2.7976 20.354 2.3656 20.314 1.9256 20.234C1.4936 20.162 1.1696 20.082 0.953604 19.994L0.653604 19.874L1.0136 18.566C1.6696 18.846 2.3936 18.986 3.1856 18.986C4.3136 18.986 4.8776 18.63 4.8776 17.918C4.8776 17.614 4.7576 17.366 4.5176 17.174C4.4376 17.094 4.2896 17.01 4.0736 16.922C3.9056 16.85 3.7456 16.79 3.5936 16.742L3.0176 16.574C2.3696 16.39 1.8176 16.13 1.3616 15.794C0.841604 15.386 0.581604 14.798 0.581604 14.03C0.581604 13.166 0.873604 12.538 1.4576 12.146C2.0496 11.746 2.8336 11.546 3.8096 11.546C4.6576 11.546 5.3816 11.658 5.9816 11.882L6.2696 12.002L5.9096 13.25C5.3816 13.026 4.7256 12.914 3.9416 12.914C2.7976 12.914 2.2256 13.25 2.2256 13.922Z" fill="#1B365D"/>
<path d="M12.686 13.766L12.374 15.014C12.014 14.854 11.59 14.774 11.102 14.774C10.422 14.774 9.96204 14.998 9.72204 15.446C9.53004 15.838 9.43404 16.314 9.43404 16.874C9.43404 17.49 9.53404 17.986 9.73404 18.362C9.98204 18.794 10.442 19.01 11.114 19.01C11.602 19.01 12.022 18.926 12.374 18.758L12.686 20.018C12.27 20.242 11.686 20.354 10.934 20.354C8.83004 20.354 7.77804 19.198 7.77804 16.886C7.77804 14.582 8.83004 13.43 10.934 13.43C11.598 13.43 12.118 13.514 12.494 13.682L12.686 13.766Z" fill="#1B365D"/>
<path d="M17.4361 13.502L17.3401 14.87C17.2921 14.862 17.1521 14.858 16.9201 14.858C16.5441 14.858 16.1521 14.914 15.7441 15.026V20.21H14.0881V13.994C14.7761 13.634 15.6281 13.454 16.6441 13.454C16.9721 13.454 17.2361 13.47 17.4361 13.502Z" fill="#1B365D"/>
<path d="M23.8689 17.306H19.9809C19.9809 17.826 20.1169 18.246 20.3889 18.566C20.6689 18.878 21.1049 19.034 21.6969 19.034C22.2889 19.034 22.8009 18.962 23.2329 18.818L23.4609 18.746L23.6649 19.994C23.0729 20.234 22.3609 20.354 21.5289 20.354C19.3929 20.354 18.3249 19.198 18.3249 16.886C18.3249 15.854 18.5649 15.018 19.0449 14.378C19.5329 13.746 20.2769 13.43 21.2769 13.43C22.1969 13.43 22.8809 13.674 23.3289 14.162C23.7769 14.642 24.0009 15.306 24.0009 16.154C24.0009 16.482 23.9569 16.866 23.8689 17.306ZM19.9929 16.226H22.4289V16.058C22.4289 15.618 22.3409 15.286 22.1649 15.062C21.9969 14.83 21.7009 14.714 21.2769 14.714C20.4849 14.714 20.0569 15.218 19.9929 16.226Z" fill="#1B365D"/>
<path d="M30.7361 17.306H26.8481C26.8481 17.826 26.9841 18.246 27.2561 18.566C27.5361 18.878 27.9721 19.034 28.5641 19.034C29.1561 19.034 29.6681 18.962 30.1001 18.818L30.3281 18.746L30.5321 19.994C29.9401 20.234 29.2281 20.354 28.3961 20.354C26.2601 20.354 25.1921 19.198 25.1921 16.886C25.1921 15.854 25.4321 15.018 25.9121 14.378C26.4001 13.746 27.1441 13.43 28.1441 13.43C29.0641 13.43 29.7481 13.674 30.1961 14.162C30.6441 14.642 30.8681 15.306 30.8681 16.154C30.8681 16.482 30.8241 16.866 30.7361 17.306ZM26.8601 16.226H29.2961V16.058C29.2961 15.618 29.2081 15.286 29.0321 15.062C28.8641 14.83 28.5681 14.714 28.1441 14.714C27.3521 14.714 26.9241 15.218 26.8601 16.226Z" fill="#1B365D"/>
<path d="M38.0953 20.21H36.4513V16.022C36.4513 15.542 36.3393 15.214 36.1153 15.038C35.8913 14.854 35.5513 14.762 35.0953 14.762C34.7193 14.762 34.3833 14.802 34.0873 14.882L33.9433 14.93V20.21H32.2873V13.982L32.6713 13.838C32.8393 13.782 33.1753 13.698 33.6793 13.586C34.1753 13.482 34.6793 13.43 35.1913 13.43C36.1993 13.43 36.9353 13.642 37.3993 14.066C37.8633 14.49 38.0953 15.198 38.0953 16.19V20.21Z" fill="#1B365D"/>
<path d="M39.717 13.574H41.373V20.21H39.717V13.574ZM40.557 10.994C40.845 10.994 41.073 11.07 41.241 11.222C41.409 11.374 41.493 11.582 41.493 11.846C41.493 12.126 41.409 12.342 41.241 12.494C41.081 12.638 40.853 12.71 40.557 12.71C40.261 12.71 40.029 12.638 39.861 12.494C39.693 12.342 39.609 12.126 39.609 11.846C39.609 11.574 39.693 11.366 39.861 11.222C40.029 11.07 40.261 10.994 40.557 10.994Z" fill="#1B365D"/>
<path d="M48.8648 20.21H47.2208V16.022C47.2208 15.542 47.1088 15.214 46.8848 15.038C46.6608 14.854 46.3208 14.762 45.8648 14.762C45.4888 14.762 45.1528 14.802 44.8568 14.882L44.7128 14.93V20.21H43.0568V13.982L43.4408 13.838C43.6088 13.782 43.9448 13.698 44.4488 13.586C44.9448 13.482 45.4488 13.43 45.9608 13.43C46.9688 13.43 47.7048 13.642 48.1688 14.066C48.6328 14.49 48.8648 15.198 48.8648 16.19V20.21Z" fill="#1B365D"/>
<path d="M50.2585 16.898C50.2585 15.73 50.5145 14.862 51.0265 14.294C51.5385 13.718 52.3425 13.43 53.4385 13.43C53.9025 13.43 54.3545 13.478 54.7945 13.574C55.2265 13.654 55.5585 13.746 55.7905 13.85L56.1265 13.982V19.622C56.1265 21.774 55.0665 22.85 52.9465 22.85C52.2425 22.85 51.6785 22.77 51.2545 22.61L51.0265 22.538L51.2305 21.266C51.6625 21.442 52.1865 21.53 52.8025 21.53C53.9465 21.53 54.5385 21.062 54.5785 20.126C54.2585 20.23 53.8345 20.282 53.3065 20.282C51.2745 20.282 50.2585 19.154 50.2585 16.898ZM51.9145 16.898C51.9145 17.618 52.0265 18.146 52.2505 18.482C52.4825 18.818 52.8785 18.986 53.4385 18.986C53.8145 18.986 54.1585 18.942 54.4705 18.854V14.918C54.2065 14.814 53.8625 14.762 53.4385 14.762C52.8785 14.762 52.4825 14.938 52.2505 15.29C52.0265 15.634 51.9145 16.17 51.9145 16.898Z" fill="#1B365D"/>
<path d="M10.2137 57.6599L10.6137 58.9999C10.207 59.2266 9.61035 59.3399 8.82368 59.3399C7.65702 59.3399 6.80368 59.0099 6.26368 58.3499C5.73035 57.6899 5.46368 56.7932 5.46368 55.6599C5.46368 54.5332 5.73035 53.6366 6.26368 52.9699C6.79035 52.3099 7.64035 51.9799 8.81368 51.9799C9.50702 51.9799 10.0437 52.0632 10.4237 52.2299L10.6137 52.3199L10.2137 53.6599C9.93368 53.5266 9.54368 53.4599 9.04368 53.4599C8.40368 53.4599 7.94368 53.6466 7.66368 54.0199C7.39035 54.3866 7.25368 54.9332 7.25368 55.6599C7.25368 56.3866 7.39035 56.9366 7.66368 57.3099C7.94368 57.6766 8.40368 57.8599 9.04368 57.8599C9.50368 57.8599 9.85368 57.8099 10.0937 57.7099L10.2137 57.6599Z" fill="#0054A6"/>
<path d="M11.6207 51.6099H13.3507V59.2099H11.6207V51.6099Z" fill="#0054A6"/>
<path d="M14.6383 53.6799H16.3683V59.2099H14.6383V53.6799ZM14.5583 52.2399C14.5583 51.9666 14.6416 51.7566 14.8083 51.6099C14.975 51.4632 15.205 51.3899 15.4983 51.3899C15.7916 51.3899 16.0216 51.4632 16.1883 51.6099C16.3616 51.7632 16.4483 51.9732 16.4483 52.2399C16.4483 52.5066 16.3616 52.7166 16.1883 52.8699C16.0216 53.0166 15.7916 53.0899 15.4983 53.0899C15.205 53.0899 14.975 53.0166 14.8083 52.8699C14.6416 52.7232 14.5583 52.5132 14.5583 52.2399Z" fill="#0054A6"/>
<path d="M21.7059 53.8499L21.3859 55.1399C21.0659 55.0066 20.7325 54.9399 20.3859 54.9399C19.9592 54.9399 19.6525 55.0666 19.4659 55.3199C19.2859 55.5732 19.1959 55.9466 19.1959 56.4399C19.1959 56.9399 19.2892 57.3166 19.4759 57.5699C19.6625 57.8232 19.9659 57.9499 20.3859 57.9499C20.7459 57.9499 21.0792 57.8799 21.3859 57.7399L21.7059 59.0399C21.3325 59.2399 20.8225 59.3399 20.1759 59.3399C18.3692 59.3399 17.4659 58.3732 17.4659 56.4399C17.4659 54.5132 18.3692 53.5499 20.1759 53.5499C20.7159 53.5499 21.1725 53.6232 21.5459 53.7699L21.7059 53.8499Z" fill="#0054A6"/>
<path d="M24.4933 56.0499L26.0633 53.6799H27.9433L26.1333 56.3699L27.0033 57.5299C27.23 57.8166 27.4533 57.9599 27.6733 57.9599L27.9133 57.9299V59.1699C27.7266 59.2699 27.4766 59.3199 27.1633 59.3199C26.5566 59.3199 26.0133 58.9999 25.5333 58.3599L24.4933 56.9799V59.2099H22.7633V51.6099H24.4933V56.0499Z" fill="#0054A6"/>
<path d="M30.9176 59.2099V51.6099H32.6476V53.6299C32.9876 53.5766 33.2876 53.5499 33.5476 53.5499C34.3609 53.5499 34.9609 53.7232 35.3476 54.0699C35.7476 54.4166 35.9476 55.0232 35.9476 55.8899V59.2099H34.2176V55.6999C34.2176 55.4132 34.1476 55.2132 34.0076 55.0999C33.8676 54.9799 33.6576 54.9199 33.3776 54.9199C33.1376 54.9199 32.9243 54.9432 32.7376 54.9899L32.6476 55.0199V59.2099H30.9176Z" fill="#0054A6"/>
<path d="M41.7574 56.9199H38.7174C38.724 57.2466 38.8274 57.5066 39.0274 57.6999C39.234 57.8866 39.544 57.9799 39.9574 57.9799C40.3974 57.9799 40.8074 57.9266 41.1874 57.8199L41.3874 57.7699L41.5974 59.0399C41.0774 59.2399 40.4707 59.3399 39.7774 59.3399C38.864 59.3399 38.1707 59.0999 37.6974 58.6199C37.224 58.1332 36.9874 57.4066 36.9874 56.4399C36.9874 55.5732 37.1974 54.8766 37.6174 54.3499C38.0507 53.8166 38.6907 53.5499 39.5374 53.5499C40.3174 53.5499 40.9007 53.7566 41.2874 54.1699C41.6807 54.5832 41.8774 55.1532 41.8774 55.8799C41.8774 56.2199 41.8374 56.5666 41.7574 56.9199ZM38.7174 55.8499H40.2574C40.2574 55.6432 40.244 55.4799 40.2174 55.3599C40.1907 55.2332 40.1207 55.1199 40.0074 55.0199C39.9007 54.9199 39.7407 54.8699 39.5274 54.8699C39.0207 54.8699 38.7507 55.1966 38.7174 55.8499Z" fill="#0054A6"/>
<path d="M45.9884 53.5999L45.8984 55.0199C45.8784 55.0132 45.7817 55.0099 45.6084 55.0099C45.215 55.0099 44.9117 55.0532 44.6984 55.1399V59.2099H42.9684V54.0399C43.6484 53.7199 44.4317 53.5599 45.3184 53.5599C45.5784 53.5599 45.8017 53.5732 45.9884 53.5999Z" fill="#0054A6"/>
<path d="M51.4253 56.9199H48.3853C48.392 57.2466 48.4953 57.5066 48.6953 57.6999C48.902 57.8866 49.212 57.9799 49.6253 57.9799C50.0653 57.9799 50.4753 57.9266 50.8553 57.8199L51.0553 57.7699L51.2653 59.0399C50.7453 59.2399 50.1387 59.3399 49.4453 59.3399C48.532 59.3399 47.8387 59.0999 47.3653 58.6199C46.892 58.1332 46.6553 57.4066 46.6553 56.4399C46.6553 55.5732 46.8653 54.8766 47.2853 54.3499C47.7187 53.8166 48.3587 53.5499 49.2053 53.5499C49.9853 53.5499 50.5687 53.7566 50.9553 54.1699C51.3487 54.5832 51.5453 55.1532 51.5453 55.8799C51.5453 56.2199 51.5053 56.5666 51.4253 56.9199ZM48.3853 55.8499H49.9253C49.9253 55.6432 49.912 55.4799 49.8853 55.3599C49.8587 55.2332 49.7887 55.1199 49.6753 55.0199C49.5687 54.9199 49.4087 54.8699 49.1953 54.8699C48.6887 54.8699 48.4187 55.1966 48.3853 55.8499Z" fill="#0054A6"/>
</svg>
