<svg width="97" height="123" viewBox="0 0 97 123" fill="none" xmlns="http://www.w3.org/2000/svg">
<path d="M0.125488 92.1755H96.1255V108.176C96.1255 115.908 89.8575 122.176 82.1255 122.176H14.1255C6.3935 122.176 0.125488 115.908 0.125488 108.176V92.1755Z" fill="#2E2E2E"/>
<path d="M0.0849609 16.3569C0.0849609 10.4285 4.89082 5.62268 10.8191 5.62268H85.3621C91.2904 5.62268 96.0963 10.4285 96.0963 16.3569V90.8998C96.0963 96.8281 91.2904 101.634 85.3621 101.634H10.8191C4.89082 101.634 0.0849609 96.8281 0.0849609 90.8998V16.3569Z" fill="white"/>
<path fill-rule="evenodd" clip-rule="evenodd" d="M85.3621 7.41171H10.8191C5.87887 7.41171 1.87399 11.4166 1.87399 16.3569V90.8998C1.87399 95.8401 5.87888 99.845 10.8191 99.845H85.3621C90.3024 99.845 94.3072 95.8401 94.3072 90.8998V16.3569C94.3072 11.4166 90.3024 7.41171 85.3621 7.41171ZM10.8191 5.62268C4.89082 5.62268 0.0849609 10.4285 0.0849609 16.3569V90.8998C0.0849609 96.8281 4.89082 101.634 10.8191 101.634H85.3621C91.2904 101.634 96.0963 96.8281 96.0963 90.8998V16.3569C96.0963 10.4285 91.2904 5.62268 85.3621 5.62268H10.8191Z" fill="url(#paint0_linear_111_102)"/>
<path d="M0 20.4082C0 12.2424 4.83144 5.62268 10.7913 5.62268H85.7311C91.691 5.62268 96.5225 12.2424 96.5225 20.4082V19.9037H0V20.4082Z" fill="url(#paint1_linear_111_102)" fill-opacity="0.25"/>
<path d="M23.8476 37.8502C22.8172 38.4927 22.4441 40.1705 23.0126 41.5627C23.1725 41.9197 23.8831 42.83 24.6115 43.5796C25.8728 44.8826 25.9439 44.9897 25.9439 45.775C25.9439 46.5068 25.8906 46.6318 25.482 46.7746C24.9135 47.0066 24.949 47.0066 24.6293 46.6675C24.4694 46.5247 24.345 46.1142 24.345 45.775C24.345 45.1682 24.345 45.1682 23.5455 45.1682H22.7461V46.0606C22.7461 47.7384 23.4923 48.5594 24.9846 48.5594C26.6723 48.5594 27.7205 47.3993 27.7205 45.5609C27.7205 44.2936 27.3474 43.5796 26.1393 42.473C24.8957 41.3307 24.5227 40.7774 24.5227 40.0634C24.5227 39.4387 24.8069 39.0996 25.3221 39.0996C25.8373 39.0996 26.1216 39.4387 26.1216 40.0456C26.1216 40.4382 26.1926 40.5453 26.4058 40.4561C26.5657 40.4026 26.921 40.349 27.2053 40.349C27.6672 40.349 27.7205 40.2955 27.7205 39.7957C27.7205 38.9568 27.223 38.0822 26.5657 37.7788C25.7485 37.3861 24.5582 37.4218 23.8476 37.8502Z" fill="url(#paint2_linear_111_102)"/>
<path d="M29.9627 37.7926C28.9145 38.3133 28.8257 38.6904 28.8257 42.8379C28.8257 46.1954 28.8612 46.6264 29.1632 47.1291C29.6074 47.8652 30.4424 48.1525 31.5438 47.937C33.1605 47.6318 33.8001 46.77 33.8001 44.8847V43.7895H33.0006H32.2012V44.6693C32.2012 45.8004 32.0768 46.1057 31.5261 46.3211C30.6733 46.6443 30.6022 46.3929 30.6022 42.7302C30.6022 39.2649 30.6733 38.9417 31.3306 38.9417C31.8458 38.9417 32.2012 39.4624 32.2012 40.2165V40.9168H33.0006H33.8001V40.0908C33.8001 38.4211 32.9118 37.5054 31.2773 37.5054C30.8687 37.5054 30.2647 37.6311 29.9627 37.7926Z" fill="url(#paint3_linear_111_102)"/>
<path d="M69.8075 37.7568C68.7428 38.2195 68.6206 38.7356 68.6206 42.8286C68.6206 46.1564 68.6555 46.5301 68.9697 47.0818C69.4584 47.9182 70.1216 48.3809 71.0642 48.5232C72.0939 48.6834 72.8794 48.3097 73.2808 47.4555C73.5252 46.9572 73.595 46.37 73.595 44.5548V42.2947H72.3558H71.134L71.1863 43.0422C71.2387 43.6828 71.3085 43.8252 71.6576 43.8608C72.0416 43.9319 72.059 43.9675 71.9892 45.2488C71.9194 46.8682 71.5354 47.2775 70.6976 46.6725C70.4009 46.4411 70.366 46.1386 70.3136 43.2379C70.2438 39.5898 70.3485 39.0915 71.1514 39.0915C71.7623 39.0915 72.0241 39.5542 72.0241 40.6219C72.0241 41.227 72.0241 41.227 72.8096 41.227H73.595V40.3372C73.595 39.1449 73.2284 38.2907 72.5128 37.8458C71.8321 37.4365 70.6278 37.3831 69.8075 37.7568Z" fill="url(#paint4_linear_111_102)"/>
<path d="M34.9053 42.4797V47.4541L35.4921 47.346C35.8138 47.2919 36.2303 47.2378 36.4006 47.2378C36.6656 47.2378 36.7035 46.9855 36.6467 45.2553L36.5899 43.2727H37.2335C37.5931 43.2727 37.9717 43.3809 38.0663 43.489C38.1799 43.6152 38.3124 44.4442 38.3692 45.3274C38.4449 46.2105 38.5585 46.9855 38.6342 47.0576C38.7099 47.1297 39.1642 47.1477 39.6184 47.0936L40.4324 47.0215L40.3188 46.3547C40.262 45.9942 40.2052 45.1652 40.2052 44.4983C40.2052 43.507 40.1295 43.2187 39.7509 42.7861L39.2967 42.2815L39.7509 41.7768C40.1295 41.3623 40.2052 41.0739 40.2052 40.1007C40.2052 37.9379 39.6374 37.5053 36.6845 37.5053H34.9053V42.4797ZM38.2177 40.2809C38.2177 41.4885 38.1988 41.5425 37.6877 41.7047C36.7603 41.9931 36.6088 41.7948 36.6088 40.2989V38.9292L37.4227 38.9832L38.2177 39.0373V40.2809Z" fill="url(#paint5_linear_111_102)"/>
<path d="M40.9854 42.2033V46.9014H41.7124C42.1333 46.9014 43.243 46.8482 44.1996 46.795L45.9597 46.6709V45.9972V45.3058H44.4292H42.8986V43.9762V42.6466H44.1422H45.3858V41.9374V41.2283H44.1422H42.8986V40.0937V38.9768L43.7787 38.8527C44.2761 38.7995 44.9649 38.7463 45.3092 38.7463C45.9215 38.7463 45.9597 38.7109 45.9597 38.1258V37.5053H43.4725H40.9854V42.2033Z" fill="url(#paint6_linear_111_102)"/>
<path d="M47.0654 42.2033V46.9014H49.2763H51.4871V46.1786V45.4558H50.1266H48.7661V44.1006V42.7454H49.8885H50.9939L50.9429 42.0588L50.8919 41.3902L49.8375 41.336L48.7661 41.2818V40.035V38.7702H50.1266H51.4871V38.1377V37.5053H49.2763H47.0654V42.2033Z" fill="url(#paint7_linear_111_102)"/>
<path d="M52.5927 42.0704C52.5927 47.076 52.5392 46.8469 53.6802 46.8469H54.1972L54.215 43.5333L54.2329 40.2373L54.8034 41.9999C55.1243 42.9693 55.57 44.4498 55.8017 45.2958L56.2296 46.8116L57.1032 46.8822C57.5845 46.9174 58.0124 46.8998 58.0481 46.8645C58.0837 46.8293 58.1194 44.6966 58.1194 42.1409V37.5053H57.3171H56.5327L56.4792 40.0787L56.4257 42.6344L55.6413 40.0787L54.8568 37.5053H53.7337H52.5927V42.0704Z" fill="url(#paint8_linear_111_102)"/>
<path d="M59.2246 42.4188V47.3322H59.7884C60.1034 47.3322 60.4682 47.3868 60.6174 47.4414C60.8496 47.5506 60.8827 47.041 60.8827 42.528V37.5053H60.0537H59.2246V42.4188Z" fill="url(#paint9_linear_111_102)"/>
<path d="M61.9883 42.4845V47.4637H62.3984C62.6123 47.4637 62.9689 47.518 63.2007 47.5723L63.5929 47.6809L63.6107 44.0959C63.6286 39.9497 63.5929 39.9316 64.841 44.6572C65.2689 46.2506 65.6611 47.6085 65.7146 47.6628C65.7681 47.7352 66.196 47.8258 66.6774 47.8982L67.5154 48.0068V42.7561V37.5054H66.713H65.9107V40.348L65.8929 43.2088L65.1084 40.4204C64.6627 38.8995 64.3061 37.614 64.3061 37.5778C64.3061 37.5416 63.789 37.5054 63.1472 37.5054H61.9883V42.4845Z" fill="url(#paint10_linear_111_102)"/>
<path fill-rule="evenodd" clip-rule="evenodd" d="M85.3621 7.41171H10.8191C5.87887 7.41171 1.87399 11.4166 1.87399 16.3569V90.8998C1.87399 95.8401 5.87888 99.845 10.8191 99.845H85.3621C90.3024 99.845 94.3072 95.8401 94.3072 90.8998V16.3569C94.3072 11.4166 90.3024 7.41171 85.3621 7.41171ZM10.8191 5.62268C4.89082 5.62268 0.0849609 10.4285 0.0849609 16.3569V90.8998C0.0849609 96.8281 4.89082 101.634 10.8191 101.634H85.3621C91.2904 101.634 96.0963 96.8281 96.0963 90.8998V16.3569C96.0963 10.4285 91.2904 5.62268 85.3621 5.62268H10.8191Z" fill="url(#paint11_linear_111_102)"/>
<path d="M28.1058 113.62H30.6998V115.087H26.1255V107.287H28.1058V113.62Z" fill="white"/>
<path d="M35.489 115.164C34.7247 115.164 34.0222 114.994 33.3814 114.653C32.7483 114.313 32.2426 113.839 31.8643 113.231C31.4938 112.616 31.3085 111.927 31.3085 111.164C31.3085 110.401 31.4938 109.716 31.8643 109.109C32.2426 108.501 32.7483 108.027 33.3814 107.687C34.0222 107.346 34.7247 107.176 35.489 107.176C36.2534 107.176 36.952 107.346 37.5851 107.687C38.2259 108.027 38.7277 108.501 39.0906 109.109C39.4612 109.716 39.6464 110.401 39.6464 111.164C39.6464 111.927 39.4612 112.616 39.0906 113.231C38.72 113.839 38.2182 114.313 37.5851 114.653C36.952 114.994 36.2534 115.164 35.489 115.164ZM35.489 113.431C36.1376 113.431 36.6548 113.224 37.0408 112.809C37.4346 112.394 37.6314 111.846 37.6314 111.164C37.6314 110.476 37.4346 109.927 37.0408 109.52C36.6548 109.105 36.1376 108.898 35.489 108.898C34.8328 108.898 34.3078 109.101 33.9141 109.509C33.5281 109.916 33.3351 110.468 33.3351 111.164C33.3351 111.853 33.5281 112.405 33.9141 112.82C34.3078 113.227 34.8328 113.431 35.489 113.431Z" fill="white"/>
<path d="M46.1446 109.753C45.998 109.494 45.7856 109.298 45.5077 109.164C45.2375 109.024 44.9171 108.953 44.5465 108.953C43.9057 108.953 43.3923 109.157 43.0063 109.564C42.6203 109.964 42.4273 110.501 42.4273 111.176C42.4273 111.894 42.628 112.457 43.0295 112.864C43.4387 113.264 43.9984 113.464 44.7087 113.464C45.195 113.464 45.6042 113.346 45.9362 113.109C46.2759 112.872 46.5229 112.531 46.6773 112.087H44.1644V110.687H48.4723V112.453C48.3256 112.927 48.0747 113.368 47.7196 113.776C47.3722 114.183 46.9283 114.513 46.3878 114.764C45.8474 115.016 45.2375 115.142 44.5581 115.142C43.7552 115.142 43.0372 114.976 42.4041 114.642C41.7788 114.301 41.2885 113.831 40.9334 113.231C40.586 112.631 40.4123 111.946 40.4123 111.176C40.4123 110.405 40.586 109.72 40.9334 109.12C41.2885 108.513 41.7788 108.042 42.4041 107.709C43.0295 107.368 43.7436 107.198 44.5465 107.198C45.5193 107.198 46.3376 107.424 47.0016 107.876C47.6733 108.327 48.1172 108.953 48.3334 109.753H46.1446Z" fill="white"/>
<path d="M56.5407 107.287L53.7266 112.509V115.087H51.7463V112.509L48.9323 107.287H51.1789L52.7538 110.553L54.3172 107.287H56.5407Z" fill="white"/>
<path d="M58.265 115.176C57.9176 115.176 57.6319 115.079 57.408 114.887C57.1919 114.687 57.0838 114.442 57.0838 114.153C57.0838 113.857 57.1919 113.609 57.408 113.409C57.6319 113.209 57.9176 113.109 58.265 113.109C58.6047 113.109 58.8826 113.209 59.0988 113.409C59.3227 113.609 59.4346 113.857 59.4346 114.153C59.4346 114.442 59.3227 114.687 59.0988 114.887C58.8826 115.079 58.6047 115.176 58.265 115.176Z" fill="white"/>
<path d="M65.6675 113.709H62.6335L62.1471 115.087H60.0742L63.0156 107.287H65.3086L68.25 115.087H66.1539L65.6675 113.709ZM65.158 112.242L64.1505 109.387L63.1546 112.242H65.158Z" fill="#64B5FF"/>
<path d="M71.1255 107.287V115.087H69.1452V107.287H71.1255Z" fill="#64B5FF"/>
<path d="M10.0625 10.5638C10.0625 4.72957 14.7921 0 20.6263 0H75.3095C81.1437 0 85.8733 4.72957 85.8733 10.5638V10.5638C85.8733 16.398 81.1437 21.1276 75.3095 21.1276H20.6263C14.7921 21.1276 10.0625 16.398 10.0625 10.5638V10.5638Z" fill="#FF0000"/>
<path d="M34.0761 5.55371L32.2337 16.1564H30.1001L31.9352 5.55371H34.0761ZM37.3894 10.0831L37.0908 11.7871H32.4012L32.6998 10.0831H37.3894ZM38.6638 5.55371L38.3725 7.26499H33.1877L33.4862 5.55371H38.6638Z" fill="white"/>
<path d="M39.8726 5.55371L43.6083 5.56099C44.2539 5.5707 44.8389 5.68964 45.3632 5.91781C45.8924 6.14598 46.3026 6.48824 46.5939 6.94458C46.89 7.40092 47.0138 7.98106 46.9653 8.68499C46.9167 9.26269 46.776 9.75059 46.5429 10.1487C46.3148 10.5468 46.0065 10.8842 45.6181 11.1609C45.2346 11.4376 44.7928 11.6755 44.2928 11.8745L43.55 12.2313H40.0983L40.3896 10.5273L42.7636 10.5419C43.1179 10.537 43.4408 10.4691 43.7321 10.338C44.0233 10.2069 44.2637 10.0176 44.453 9.77001C44.6472 9.51756 44.7685 9.21172 44.8171 8.85247C44.8608 8.53692 44.8389 8.26263 44.7515 8.0296C44.669 7.79658 44.5258 7.61453 44.3219 7.48345C44.118 7.35237 43.8583 7.28198 43.5427 7.27227L41.7149 7.26499L40.1711 16.1564H38.0375L39.8726 5.55371ZM43.8413 16.1564L42.3121 11.4303L44.4603 11.4157L46.1133 16.0398V16.1564H43.8413Z" fill="white"/>
<path d="M54.5313 14.4524L54.2328 16.1564H48.7494L49.0407 14.4524H54.5313ZM51.2908 5.55371L49.4485 16.1564H47.3148L49.1499 5.55371H51.2908ZM54.6114 9.87196L54.3201 11.5323H49.5504L49.8417 9.87196H54.6114ZM56.0605 5.55371L55.762 7.26499H50.2859L50.5917 5.55371H56.0605Z" fill="white"/>
<path d="M62.6726 14.4524L62.3741 16.1564H56.8907L57.182 14.4524H62.6726ZM59.4321 5.55371L57.5898 16.1564H55.4561L57.2912 5.55371H59.4321ZM62.7527 9.87196L62.4615 11.5323H57.6917L57.983 9.87196H62.7527ZM64.2019 5.55371L63.9033 7.26499H58.4272L58.7331 5.55371H64.2019Z" fill="white"/>
<path d="M29.533 25.9H31.717C32.4277 25.9 32.9607 26.0907 33.316 26.472C33.6713 26.8533 33.849 27.4123 33.849 28.149V32.751C33.849 33.4877 33.6713 34.0467 33.316 34.428C32.9607 34.8093 32.4277 35 31.717 35H29.533V25.9ZM31.691 33.7C31.925 33.7 32.1027 33.6307 32.224 33.492C32.354 33.3533 32.419 33.128 32.419 32.816V28.084C32.419 27.772 32.354 27.5467 32.224 27.408C32.1027 27.2693 31.925 27.2 31.691 27.2H30.963V33.7H31.691ZM34.8143 25.9H36.2443V35H34.8143V25.9ZM38.4202 25.9H40.3572L41.8392 35H40.4092L40.1492 33.193V33.219H38.5242L38.2642 35H36.9382L38.4202 25.9ZM39.9802 31.984L39.3432 27.486H39.3172L38.6932 31.984H39.9802ZM42.533 25.9H44.691C45.4277 25.9 45.965 26.0733 46.303 26.42C46.641 26.758 46.81 27.2823 46.81 27.993V28.357C46.81 28.825 46.732 29.2063 46.576 29.501C46.4287 29.7957 46.199 30.008 45.887 30.138V30.164C46.5977 30.4067 46.953 31.0393 46.953 32.062V32.842C46.953 33.544 46.7667 34.0813 46.394 34.454C46.03 34.818 45.4927 35 44.782 35H42.533V25.9ZM44.522 29.605C44.808 29.605 45.0203 29.5313 45.159 29.384C45.3063 29.2367 45.38 28.9897 45.38 28.643V28.136C45.38 27.8067 45.3193 27.5683 45.198 27.421C45.0853 27.2737 44.9033 27.2 44.652 27.2H43.963V29.605H44.522ZM44.782 33.7C45.0333 33.7 45.2197 33.635 45.341 33.505C45.4623 33.3663 45.523 33.1323 45.523 32.803V32.01C45.523 31.594 45.4493 31.308 45.302 31.152C45.1633 30.9873 44.9293 30.905 44.6 30.905H43.963V33.7H44.782ZM47.7889 25.9H51.6889V27.2H49.2189V29.605H51.1819V30.905H49.2189V33.7H51.6889V35H47.7889V25.9ZM53.6295 27.2H52.1345V25.9H56.5545V27.2H55.0595V35H53.6295V27.2ZM57.2469 25.9H61.1469V27.2H58.6769V29.605H60.6399V30.905H58.6769V33.7H61.1469V35H57.2469V25.9ZM63.8539 35.13C63.1606 35.13 62.6362 34.935 62.2809 34.545C61.9256 34.1463 61.7479 33.5787 61.7479 32.842V32.322H63.0999V32.946C63.0999 33.5353 63.3469 33.83 63.8409 33.83C64.0836 33.83 64.2656 33.7607 64.3869 33.622C64.5169 33.4747 64.5819 33.2407 64.5819 32.92C64.5819 32.5387 64.4952 32.205 64.3219 31.919C64.1486 31.6243 63.8279 31.2733 63.3599 30.866C62.7706 30.346 62.3589 29.878 62.1249 29.462C61.8909 29.0373 61.7739 28.5607 61.7739 28.032C61.7739 27.3127 61.9559 26.758 62.3199 26.368C62.6839 25.9693 63.2126 25.77 63.9059 25.77C64.5906 25.77 65.1062 25.9693 65.4529 26.368C65.8082 26.758 65.9859 27.3213 65.9859 28.058V28.435H64.6339V27.967C64.6339 27.655 64.5732 27.4297 64.4519 27.291C64.3306 27.1437 64.1529 27.07 63.9189 27.07C63.4422 27.07 63.2039 27.3603 63.2039 27.941C63.2039 28.2703 63.2906 28.578 63.4639 28.864C63.6459 29.15 63.9709 29.4967 64.4389 29.904C65.0369 30.424 65.4486 30.8963 65.6739 31.321C65.8992 31.7457 66.0119 32.244 66.0119 32.816C66.0119 33.5613 65.8256 34.1333 65.4529 34.532C65.0889 34.9307 64.5559 35.13 63.8539 35.13Z" fill="url(#paint12_linear_111_102)"/>
<defs>
<linearGradient id="paint0_linear_111_102" x1="48.0906" y1="5.62268" x2="48.0906" y2="101.634" gradientUnits="userSpaceOnUse">
<stop offset="0.00267382" stop-color="#FF0000"/>
<stop offset="0.338866" stop-color="#006AB7" stop-opacity="0"/>
<stop offset="0.703548" stop-color="#006AB7" stop-opacity="0"/>
<stop offset="1" stop-color="#FF0000"/>
</linearGradient>
<linearGradient id="paint1_linear_111_102" x1="48.2612" y1="5.62268" x2="48.2612" y2="72.1576" gradientUnits="userSpaceOnUse">
<stop stop-color="white" stop-opacity="0"/>
<stop offset="0.854167" stop-color="#24F2FF"/>
<stop offset="1" stop-color="#00C5D1"/>
</linearGradient>
<linearGradient id="paint2_linear_111_102" x1="25.2333" y1="48.5594" x2="25.2333" y2="37.5053" gradientUnits="userSpaceOnUse">
<stop stop-color="#006AB7"/>
<stop offset="1" stop-color="#00C2FF"/>
</linearGradient>
<linearGradient id="paint3_linear_111_102" x1="31.3129" y1="48.0068" x2="31.3129" y2="37.5054" gradientUnits="userSpaceOnUse">
<stop stop-color="#006AB7"/>
<stop offset="1" stop-color="#00C2FF"/>
</linearGradient>
<linearGradient id="paint4_linear_111_102" x1="71.1078" y1="48.5594" x2="71.1078" y2="37.5053" gradientUnits="userSpaceOnUse">
<stop stop-color="#006AB7"/>
<stop offset="1" stop-color="#00C2FF"/>
</linearGradient>
<linearGradient id="paint5_linear_111_102" x1="37.6688" y1="47.4541" x2="37.6688" y2="37.5053" gradientUnits="userSpaceOnUse">
<stop stop-color="#006AB7"/>
<stop offset="1" stop-color="#00C2FF"/>
</linearGradient>
<linearGradient id="paint6_linear_111_102" x1="43.4725" y1="46.9014" x2="43.4725" y2="37.5053" gradientUnits="userSpaceOnUse">
<stop stop-color="#006AB7"/>
<stop offset="1" stop-color="#00C2FF"/>
</linearGradient>
<linearGradient id="paint7_linear_111_102" x1="49.2763" y1="46.9014" x2="49.2763" y2="37.5053" gradientUnits="userSpaceOnUse">
<stop stop-color="#006AB7"/>
<stop offset="1" stop-color="#00C2FF"/>
</linearGradient>
<linearGradient id="paint8_linear_111_102" x1="55.3558" y1="46.9014" x2="55.3558" y2="37.5053" gradientUnits="userSpaceOnUse">
<stop stop-color="#006AB7"/>
<stop offset="1" stop-color="#00C2FF"/>
</linearGradient>
<linearGradient id="paint9_linear_111_102" x1="60.0537" y1="47.4541" x2="60.0537" y2="37.5053" gradientUnits="userSpaceOnUse">
<stop stop-color="#006AB7"/>
<stop offset="1" stop-color="#00C2FF"/>
</linearGradient>
<linearGradient id="paint10_linear_111_102" x1="64.7518" y1="48.0068" x2="64.7518" y2="37.5054" gradientUnits="userSpaceOnUse">
<stop stop-color="#006AB7"/>
<stop offset="1" stop-color="#00C2FF"/>
</linearGradient>
<linearGradient id="paint11_linear_111_102" x1="48.0906" y1="5.62268" x2="48.0906" y2="101.634" gradientUnits="userSpaceOnUse">
<stop offset="0.00267382" stop-color="#FF0000"/>
<stop offset="0.338866" stop-color="#006AB7" stop-opacity="0"/>
<stop offset="0.703548" stop-color="#006AB7" stop-opacity="0"/>
<stop offset="1" stop-color="#FF0000"/>
</linearGradient>
<linearGradient id="paint12_linear_111_102" x1="48" y1="26.4286" x2="48" y2="39" gradientUnits="userSpaceOnUse">
<stop stop-color="#00C2FF"/>
<stop offset="1" stop-color="#006AB7"/>
</linearGradient>
</defs>
</svg>
