<svg width="98" height="123" viewBox="0 0 98 123" fill="none" xmlns="http://www.w3.org/2000/svg">
<path d="M1 92.1755H97V108.176C97 115.908 90.732 122.176 83 122.176H15C7.26801 122.176 1 115.908 1 108.176V92.1755Z" fill="#2E2E2E"/>
<path d="M0.959473 16.3569C0.959473 10.4285 5.76533 5.62268 11.6937 5.62268H86.2366C92.1649 5.62268 96.9708 10.4285 96.9708 16.3569V90.8998C96.9708 96.8281 92.1649 101.634 86.2366 101.634H11.6937C5.76533 101.634 0.959473 96.8281 0.959473 90.8998V16.3569Z" fill="white"/>
<path fill-rule="evenodd" clip-rule="evenodd" d="M86.2366 7.41171H11.6937C6.75339 7.41171 2.7485 11.4166 2.7485 16.3569V90.8998C2.7485 95.8401 6.75339 99.845 11.6937 99.845H86.2366C91.1769 99.845 95.1818 95.8401 95.1818 90.8998V16.3569C95.1818 11.4166 91.1769 7.41171 86.2366 7.41171ZM11.6937 5.62268C5.76533 5.62268 0.959473 10.4285 0.959473 16.3569V90.8998C0.959473 96.8281 5.76533 101.634 11.6937 101.634H86.2366C92.1649 101.634 96.9708 96.8281 96.9708 90.8998V16.3569C96.9708 10.4285 92.1649 5.62268 86.2366 5.62268H11.6937Z" fill="url(#paint0_linear_110_81)"/>
<path d="M0.874512 20.4082C0.874512 12.2424 5.70596 5.62268 11.6658 5.62268H86.6056C92.5655 5.62268 97.397 12.2424 97.397 20.4082V19.9037H0.874512V20.4082Z" fill="url(#paint1_linear_110_81)" fill-opacity="0.25"/>
<path d="M24.7221 37.8502C23.6917 38.4927 23.3186 40.1705 23.8871 41.5627C24.047 41.9197 24.7576 42.83 25.486 43.5796C26.7474 44.8826 26.8184 44.9897 26.8184 45.775C26.8184 46.5068 26.7651 46.6318 26.3565 46.7746C25.788 47.0066 25.8235 47.0066 25.5038 46.6675C25.3439 46.5247 25.2195 46.1142 25.2195 45.775C25.2195 45.1682 25.2195 45.1682 24.4201 45.1682H23.6206V46.0606C23.6206 47.7384 24.3668 48.5594 25.8591 48.5594C27.5468 48.5594 28.595 47.3993 28.595 45.5609C28.595 44.2936 28.2219 43.5796 27.0138 42.473C25.7702 41.3307 25.3972 40.7774 25.3972 40.0634C25.3972 39.4387 25.6814 39.0996 26.1966 39.0996C26.7118 39.0996 26.9961 39.4387 26.9961 40.0456C26.9961 40.4382 27.0671 40.5453 27.2803 40.4561C27.4402 40.4026 27.7955 40.349 28.0798 40.349C28.5417 40.349 28.595 40.2955 28.595 39.7957C28.595 38.9568 28.0975 38.0822 27.4402 37.7788C26.623 37.3861 25.4327 37.4218 24.7221 37.8502Z" fill="url(#paint2_linear_110_81)"/>
<path d="M30.8372 37.7926C29.789 38.3133 29.7002 38.6904 29.7002 42.8379C29.7002 46.1954 29.7357 46.6264 30.0377 47.1291C30.4819 47.8652 31.3169 48.1525 32.4183 47.937C34.035 47.6318 34.6746 46.77 34.6746 44.8847V43.7895H33.8751H33.0757V44.6693C33.0757 45.8004 32.9513 46.1057 32.4006 46.3211C31.5478 46.6443 31.4768 46.3929 31.4768 42.7302C31.4768 39.2649 31.5478 38.9417 32.2051 38.9417C32.7204 38.9417 33.0757 39.4624 33.0757 40.2165V40.9168H33.8751H34.6746V40.0908C34.6746 38.4211 33.7863 37.5054 32.1519 37.5054C31.7432 37.5054 31.1392 37.6311 30.8372 37.7926Z" fill="url(#paint3_linear_110_81)"/>
<path d="M70.682 37.7568C69.6173 38.2195 69.4951 38.7356 69.4951 42.8286C69.4951 46.1564 69.53 46.5301 69.8442 47.0818C70.3329 47.9182 70.9962 48.3809 71.9387 48.5232C72.9685 48.6834 73.7539 48.3097 74.1553 47.4555C74.3997 46.9572 74.4695 46.37 74.4695 44.5548V42.2947H73.2303H72.0085L72.0608 43.0422C72.1132 43.6828 72.183 43.8252 72.5321 43.8608C72.9161 43.9319 72.9335 43.9675 72.8637 45.2488C72.7939 46.8682 72.4099 47.2775 71.5721 46.6725C71.2754 46.4411 71.2405 46.1386 71.1882 43.2379C71.1183 39.5898 71.2231 39.0915 72.0259 39.0915C72.6368 39.0915 72.8986 39.5542 72.8986 40.6219C72.8986 41.227 72.8986 41.227 73.6841 41.227H74.4695V40.3372C74.4695 39.1449 74.103 38.2907 73.3873 37.8458C72.7066 37.4365 71.5023 37.3831 70.682 37.7568Z" fill="url(#paint4_linear_110_81)"/>
<path d="M35.7798 42.4797V47.4541L36.3666 47.346C36.6883 47.2919 37.1048 47.2378 37.2751 47.2378C37.5401 47.2378 37.578 46.9855 37.5212 45.2553L37.4644 43.2727H38.108C38.4676 43.2727 38.8462 43.3809 38.9408 43.489C39.0544 43.6152 39.1869 44.4442 39.2437 45.3274C39.3194 46.2105 39.433 46.9855 39.5087 47.0576C39.5844 47.1297 40.0387 47.1477 40.493 47.0936L41.3069 47.0215L41.1933 46.3547C41.1365 45.9942 41.0797 45.1652 41.0797 44.4983C41.0797 43.507 41.004 43.2187 40.6255 42.7861L40.1712 42.2815L40.6255 41.7768C41.004 41.3623 41.0797 41.0739 41.0797 40.1007C41.0797 37.9379 40.5119 37.5053 37.5591 37.5053H35.7798V42.4797ZM39.0923 40.2809C39.0923 41.4885 39.0733 41.5425 38.5623 41.7047C37.6348 41.9931 37.4833 41.7948 37.4833 40.2989V38.9292L38.2973 38.9832L39.0923 39.0373V40.2809Z" fill="url(#paint5_linear_110_81)"/>
<path d="M41.8599 42.2033V46.9014H42.5869C43.0078 46.9014 44.1175 46.8482 45.0741 46.795L46.8342 46.6709V45.9972V45.3058H45.3037H43.7731V43.9762V42.6466H45.0167H46.2603V41.9374V41.2283H45.0167H43.7731V40.0937V38.9768L44.6532 38.8527C45.1506 38.7995 45.8394 38.7463 46.1837 38.7463C46.796 38.7463 46.8342 38.7109 46.8342 38.1258V37.5053H44.3471H41.8599V42.2033Z" fill="url(#paint6_linear_110_81)"/>
<path d="M47.9399 42.2033V46.9014H50.1508H52.3616V46.1786V45.4558H51.0011H49.6406V44.1006V42.7454H50.763H51.8684L51.8174 42.0588L51.7664 41.3902L50.712 41.336L49.6406 41.2818V40.035V38.7702H51.0011H52.3616V38.1377V37.5053H50.1508H47.9399V42.2033Z" fill="url(#paint7_linear_110_81)"/>
<path d="M53.4672 42.0704C53.4672 47.076 53.4137 46.8469 54.5547 46.8469H55.0717L55.0895 43.5333L55.1074 40.2373L55.6779 41.9999C55.9988 42.9693 56.4445 44.4498 56.6762 45.2958L57.1041 46.8116L57.9777 46.8822C58.459 46.9174 58.8869 46.8998 58.9226 46.8645C58.9582 46.8293 58.9939 44.6966 58.9939 42.1409V37.5053H58.1916H57.4072L57.3537 40.0787L57.3002 42.6344L56.5158 40.0787L55.7314 37.5053H54.6082H53.4672V42.0704Z" fill="url(#paint8_linear_110_81)"/>
<path d="M60.0991 42.4188V47.3322H60.6629C60.9779 47.3322 61.3427 47.3868 61.4919 47.4414C61.7241 47.5506 61.7572 47.041 61.7572 42.528V37.5053H60.9282H60.0991V42.4188Z" fill="url(#paint9_linear_110_81)"/>
<path d="M62.8628 42.4845V47.4637H63.2729C63.4868 47.4637 63.8434 47.518 64.0752 47.5723L64.4674 47.6809L64.4853 44.0959C64.5031 39.9497 64.4674 39.9316 65.7155 44.6572C66.1434 46.2506 66.5356 47.6085 66.5891 47.6628C66.6426 47.7352 67.0705 47.8258 67.5519 47.8982L68.3899 48.0068V42.7561V37.5054H67.5876H66.7852V40.348L66.7674 43.2088L65.9829 40.4204C65.5372 38.8995 65.1806 37.614 65.1806 37.5778C65.1806 37.5416 64.6636 37.5054 64.0217 37.5054H62.8628V42.4845Z" fill="url(#paint10_linear_110_81)"/>
<path fill-rule="evenodd" clip-rule="evenodd" d="M86.2366 7.41171H11.6937C6.75339 7.41171 2.7485 11.4166 2.7485 16.3569V90.8998C2.7485 95.8401 6.75339 99.845 11.6937 99.845H86.2366C91.1769 99.845 95.1818 95.8401 95.1818 90.8998V16.3569C95.1818 11.4166 91.1769 7.41171 86.2366 7.41171ZM11.6937 5.62268C5.76533 5.62268 0.959473 10.4285 0.959473 16.3569V90.8998C0.959473 96.8281 5.76533 101.634 11.6937 101.634H86.2366C92.1649 101.634 96.9708 96.8281 96.9708 90.8998V16.3569C96.9708 10.4285 92.1649 5.62268 86.2366 5.62268H11.6937Z" fill="url(#paint11_linear_110_81)"/>
<path d="M28.9803 113.62H31.5743V115.087H27V107.287H28.9803V113.62Z" fill="white"/>
<path d="M36.3636 115.164C35.5992 115.164 34.8967 114.994 34.2559 114.653C33.6228 114.313 33.1172 113.839 32.7389 113.231C32.3683 112.616 32.183 111.927 32.183 111.164C32.183 110.401 32.3683 109.716 32.7389 109.109C33.1172 108.501 33.6228 108.027 34.2559 107.687C34.8967 107.346 35.5992 107.176 36.3636 107.176C37.1279 107.176 37.8266 107.346 38.4596 107.687C39.1004 108.027 39.6022 108.501 39.9651 109.109C40.3357 109.716 40.521 110.401 40.521 111.164C40.521 111.927 40.3357 112.616 39.9651 113.231C39.5945 113.839 39.0927 114.313 38.4596 114.653C37.8266 114.994 37.1279 115.164 36.3636 115.164ZM36.3636 113.431C37.0121 113.431 37.5293 113.224 37.9153 112.809C38.3091 112.394 38.5059 111.846 38.5059 111.164C38.5059 110.476 38.3091 109.927 37.9153 109.52C37.5293 109.105 37.0121 108.898 36.3636 108.898C35.7073 108.898 35.1823 109.101 34.7886 109.509C34.4026 109.916 34.2096 110.468 34.2096 111.164C34.2096 111.853 34.4026 112.405 34.7886 112.82C35.1823 113.227 35.7073 113.431 36.3636 113.431Z" fill="white"/>
<path d="M47.0192 109.753C46.8725 109.494 46.6602 109.298 46.3822 109.164C46.112 109.024 45.7916 108.953 45.421 108.953C44.7803 108.953 44.2669 109.157 43.8808 109.564C43.4948 109.964 43.3018 110.501 43.3018 111.176C43.3018 111.894 43.5025 112.457 43.904 112.864C44.3132 113.264 44.8729 113.464 45.5832 113.464C46.0695 113.464 46.4787 113.346 46.8107 113.109C47.1504 112.872 47.3974 112.531 47.5519 112.087H45.0389V110.687H49.3468V112.453C49.2001 112.927 48.9492 113.368 48.5941 113.776C48.2467 114.183 47.8028 114.513 47.2623 114.764C46.7219 115.016 46.112 115.142 45.4326 115.142C44.6297 115.142 43.9117 114.976 43.2787 114.642C42.6533 114.301 42.1631 113.831 41.8079 113.231C41.4605 112.631 41.2868 111.946 41.2868 111.176C41.2868 110.405 41.4605 109.72 41.8079 109.12C42.1631 108.513 42.6533 108.042 43.2787 107.709C43.904 107.368 44.6181 107.198 45.421 107.198C46.3938 107.198 47.2122 107.424 47.8761 107.876C48.5478 108.327 48.9917 108.953 49.2079 109.753H47.0192Z" fill="white"/>
<path d="M57.4152 107.287L54.6011 112.509V115.087H52.6209V112.509L49.8068 107.287H52.0534L53.6284 110.553L55.1917 107.287H57.4152Z" fill="white"/>
<path d="M59.1395 115.176C58.7921 115.176 58.5064 115.079 58.2825 114.887C58.0664 114.687 57.9583 114.442 57.9583 114.153C57.9583 113.857 58.0664 113.609 58.2825 113.409C58.5064 113.209 58.7921 113.109 59.1395 113.109C59.4792 113.109 59.7571 113.209 59.9733 113.409C60.1972 113.609 60.3091 113.857 60.3091 114.153C60.3091 114.442 60.1972 114.687 59.9733 114.887C59.7571 115.079 59.4792 115.176 59.1395 115.176Z" fill="white"/>
<path d="M66.5421 113.709H63.508L63.0216 115.087H60.9487L63.8901 107.287H66.1831L69.1245 115.087H67.0284L66.5421 113.709ZM66.0325 112.242L65.025 109.387L64.0291 112.242H66.0325Z" fill="#64B5FF"/>
<path d="M72 107.287V115.087H70.0197V107.287H72Z" fill="#64B5FF"/>
<path d="M10.937 10.5638C10.937 4.72957 15.6666 0 21.5008 0H76.184C82.0182 0 86.7478 4.72957 86.7478 10.5638V10.5638C86.7478 16.398 82.0182 21.1276 76.184 21.1276H21.5008C15.6666 21.1276 10.937 16.398 10.937 10.5638V10.5638Z" fill="#FF0000"/>
<path d="M34.9506 5.55371L33.1082 16.1564H30.9746L32.8097 5.55371H34.9506ZM38.2639 10.0831L37.9654 11.7871H33.2757L33.5743 10.0831H38.2639ZM39.5383 5.55371L39.247 7.26499H34.0622L34.3608 5.55371H39.5383Z" fill="white"/>
<path d="M40.7471 5.55371L44.4828 5.56099C45.1285 5.5707 45.7134 5.68964 46.2377 5.91781C46.7669 6.14598 47.1771 6.48824 47.4684 6.94458C47.7646 7.40092 47.8883 7.98106 47.8398 8.68499C47.7913 9.26269 47.6505 9.75059 47.4174 10.1487C47.1893 10.5468 46.881 10.8842 46.4926 11.1609C46.1091 11.4376 45.6673 11.6755 45.1673 11.8745L44.4245 12.2313H40.9728L41.2641 10.5273L43.6381 10.5419C43.9925 10.537 44.3153 10.4691 44.6066 10.338C44.8979 10.2069 45.1382 10.0176 45.3275 9.77001C45.5217 9.51756 45.6431 9.21172 45.6916 8.85247C45.7353 8.53692 45.7134 8.26263 45.6261 8.0296C45.5435 7.79658 45.4003 7.61453 45.1964 7.48345C44.9925 7.35237 44.7328 7.28198 44.4172 7.27227L42.5895 7.26499L41.0457 16.1564H38.912L40.7471 5.55371ZM44.7158 16.1564L43.1866 11.4303L45.3348 11.4157L46.9878 16.0398V16.1564H44.7158Z" fill="white"/>
<path d="M55.4058 14.4524L55.1073 16.1564H49.6239L49.9152 14.4524H55.4058ZM52.1653 5.55371L50.323 16.1564H48.1893L50.0244 5.55371H52.1653ZM55.4859 9.87196L55.1947 11.5323H50.4249L50.7162 9.87196H55.4859ZM56.9351 5.55371L56.6365 7.26499H51.1604L51.4663 5.55371H56.9351Z" fill="white"/>
<path d="M63.5471 14.4524L63.2486 16.1564H57.7652L58.0565 14.4524H63.5471ZM60.3066 5.55371L58.4643 16.1564H56.3306L58.1657 5.55371H60.3066ZM63.6272 9.87196L63.336 11.5323H58.5662L58.8575 9.87196H63.6272ZM65.0764 5.55371L64.7778 7.26499H59.3017L59.6076 5.55371H65.0764Z" fill="white"/>
<path d="M41.533 25.9H45.433V27.2H42.963V29.605H44.926V30.905H42.963V33.7H45.433V35H41.533V25.9ZM48.0887 31.126L46.3597 25.9H47.8807L48.8557 29.241H48.8817L49.8567 25.9H51.2477L49.5187 31.126V35H48.0887V31.126ZM52.4119 25.9H56.3119V27.2H53.8419V29.605H55.8049V30.905H53.8419V33.7H56.3119V35H52.4119V25.9Z" fill="url(#paint12_linear_110_81)"/>
<defs>
<linearGradient id="paint0_linear_110_81" x1="48.9651" y1="5.62268" x2="48.9651" y2="101.634" gradientUnits="userSpaceOnUse">
<stop offset="0.00267382" stop-color="#FF0000"/>
<stop offset="0.338866" stop-color="#006AB7" stop-opacity="0"/>
<stop offset="0.703548" stop-color="#006AB7" stop-opacity="0"/>
<stop offset="1" stop-color="#FF0000"/>
</linearGradient>
<linearGradient id="paint1_linear_110_81" x1="49.1357" y1="5.62268" x2="49.1357" y2="72.1576" gradientUnits="userSpaceOnUse">
<stop stop-color="white" stop-opacity="0"/>
<stop offset="0.854167" stop-color="#24F2FF"/>
<stop offset="1" stop-color="#00C5D1"/>
</linearGradient>
<linearGradient id="paint2_linear_110_81" x1="26.1078" y1="48.5594" x2="26.1078" y2="37.5053" gradientUnits="userSpaceOnUse">
<stop stop-color="#006AB7"/>
<stop offset="1" stop-color="#00C2FF"/>
</linearGradient>
<linearGradient id="paint3_linear_110_81" x1="32.1874" y1="48.0068" x2="32.1874" y2="37.5054" gradientUnits="userSpaceOnUse">
<stop stop-color="#006AB7"/>
<stop offset="1" stop-color="#00C2FF"/>
</linearGradient>
<linearGradient id="paint4_linear_110_81" x1="71.9823" y1="48.5594" x2="71.9823" y2="37.5053" gradientUnits="userSpaceOnUse">
<stop stop-color="#006AB7"/>
<stop offset="1" stop-color="#00C2FF"/>
</linearGradient>
<linearGradient id="paint5_linear_110_81" x1="38.5433" y1="47.4541" x2="38.5433" y2="37.5053" gradientUnits="userSpaceOnUse">
<stop stop-color="#006AB7"/>
<stop offset="1" stop-color="#00C2FF"/>
</linearGradient>
<linearGradient id="paint6_linear_110_81" x1="44.3471" y1="46.9014" x2="44.3471" y2="37.5053" gradientUnits="userSpaceOnUse">
<stop stop-color="#006AB7"/>
<stop offset="1" stop-color="#00C2FF"/>
</linearGradient>
<linearGradient id="paint7_linear_110_81" x1="50.1508" y1="46.9014" x2="50.1508" y2="37.5053" gradientUnits="userSpaceOnUse">
<stop stop-color="#006AB7"/>
<stop offset="1" stop-color="#00C2FF"/>
</linearGradient>
<linearGradient id="paint8_linear_110_81" x1="56.2303" y1="46.9014" x2="56.2303" y2="37.5053" gradientUnits="userSpaceOnUse">
<stop stop-color="#006AB7"/>
<stop offset="1" stop-color="#00C2FF"/>
</linearGradient>
<linearGradient id="paint9_linear_110_81" x1="60.9282" y1="47.4541" x2="60.9282" y2="37.5053" gradientUnits="userSpaceOnUse">
<stop stop-color="#006AB7"/>
<stop offset="1" stop-color="#00C2FF"/>
</linearGradient>
<linearGradient id="paint10_linear_110_81" x1="65.6263" y1="48.0068" x2="65.6263" y2="37.5054" gradientUnits="userSpaceOnUse">
<stop stop-color="#006AB7"/>
<stop offset="1" stop-color="#00C2FF"/>
</linearGradient>
<linearGradient id="paint11_linear_110_81" x1="48.9651" y1="5.62268" x2="48.9651" y2="101.634" gradientUnits="userSpaceOnUse">
<stop offset="0.00267382" stop-color="#FF0000"/>
<stop offset="0.338866" stop-color="#006AB7" stop-opacity="0"/>
<stop offset="0.703548" stop-color="#006AB7" stop-opacity="0"/>
<stop offset="1" stop-color="#FF0000"/>
</linearGradient>
<linearGradient id="paint12_linear_110_81" x1="49" y1="26.4286" x2="49" y2="39" gradientUnits="userSpaceOnUse">
<stop stop-color="#00C2FF"/>
<stop offset="1" stop-color="#006AB7"/>
</linearGradient>
</defs>
</svg>
