<svg width="98" height="112" viewBox="0 0 98 112" fill="none" xmlns="http://www.w3.org/2000/svg">
<path d="M0.959473 17.1813C0.959473 11.253 5.76533 6.44714 11.6937 6.44714H86.2366C92.1649 6.44714 96.9708 11.253 96.9708 17.1813V91.7243C96.9708 97.6526 92.1649 102.458 86.2366 102.458H11.6937C5.76533 102.458 0.959473 97.6526 0.959473 91.7243V17.1813Z" fill="white"/>
<path fill-rule="evenodd" clip-rule="evenodd" d="M86.2366 8.23617H11.6937C6.75339 8.23617 2.7485 12.2411 2.7485 17.1813V91.7243C2.7485 96.6645 6.75339 100.669 11.6937 100.669H86.2366C91.1769 100.669 95.1818 96.6645 95.1818 91.7243V17.1813C95.1818 12.2411 91.1769 8.23617 86.2366 8.23617ZM11.6937 6.44714C5.76533 6.44714 0.959473 11.253 0.959473 17.1813V91.7243C0.959473 97.6526 5.76533 102.458 11.6937 102.458H86.2366C92.1649 102.458 96.9708 97.6526 96.9708 91.7243V17.1813C96.9708 11.253 92.1649 6.44714 86.2366 6.44714H11.6937Z" fill="url(#paint0_linear_101_33)"/>
<path d="M0.874268 21.2327C0.874268 13.0669 5.70571 6.44714 11.6656 6.44714H86.6054C92.5653 6.44714 97.3967 13.0669 97.3967 21.2327V20.7282H0.874268V21.2327Z" fill="url(#paint1_linear_101_33)" fill-opacity="0.25"/>
<path d="M41.2443 35.6679C40.5592 35.6679 40.0348 35.4774 39.6711 35.0964C39.3073 34.7154 39.1255 34.1771 39.1255 33.4813V28.9094C39.1255 28.2136 39.3073 27.6753 39.6711 27.2943C40.0348 26.9133 40.5592 26.7228 41.2443 26.7228C41.9294 26.7228 42.4538 26.9133 42.8176 27.2943C43.1813 27.6753 43.3631 28.2136 43.3631 28.9094V33.4813C43.3631 34.1771 43.1813 34.7154 42.8176 35.0964C42.4538 35.4774 41.9294 35.6679 41.2443 35.6679ZM41.2443 34.4255C41.7264 34.4255 41.9675 34.1398 41.9675 33.5683V28.8224C41.9675 28.2509 41.7264 27.9652 41.2443 27.9652C40.7622 27.9652 40.5211 28.2509 40.5211 28.8224V33.5683C40.5211 34.1398 40.7622 34.4255 41.2443 34.4255Z" fill="url(#paint2_linear_101_33)"/>
<path d="M44.3069 26.847H46.375C47.094 26.847 47.6184 27.0127 47.9483 27.344C48.2781 27.667 48.4431 28.1681 48.4431 28.8473V29.3815C48.4431 30.2843 48.1386 30.8558 47.5296 31.096V31.1208C47.8679 31.2202 48.1047 31.4231 48.2401 31.7296C48.3839 32.036 48.4558 32.446 48.4558 32.9595V34.4877C48.4558 34.7361 48.4642 34.9391 48.4811 35.0964C48.4981 35.2455 48.5403 35.3946 48.608 35.5437H47.187C47.1363 35.4029 47.1024 35.2704 47.0855 35.1461C47.0686 35.0219 47.0601 34.7983 47.0601 34.4752V32.885C47.0601 32.4874 46.9925 32.21 46.8571 32.0526C46.7303 31.8952 46.5061 31.8165 46.1847 31.8165H45.7026V35.5437H44.3069V26.847ZM46.2101 30.5742C46.4892 30.5742 46.6964 30.5038 46.8318 30.363C46.9756 30.2222 47.0474 29.9861 47.0474 29.6548V28.9839C47.0474 28.6692 46.9882 28.4414 46.8698 28.3006C46.7599 28.1598 46.5822 28.0894 46.3369 28.0894H45.7026V30.5742H46.2101Z" fill="url(#paint3_linear_101_33)"/>
<path d="M50.5025 26.847H52.3929L53.8393 35.5437H52.4437L52.1899 33.8168V33.8416H50.604L50.3503 35.5437H49.0561L50.5025 26.847ZM52.025 32.6614L51.4033 28.3627H51.3779L50.7689 32.6614H52.025Z" fill="url(#paint4_linear_101_33)"/>
<path d="M54.5164 26.847H55.912V34.3013H58.2085V35.5437H54.5164V26.847Z" fill="url(#paint5_linear_101_33)"/>
<path d="M24.7221 38.6746C23.6917 39.3172 23.3186 40.995 23.8871 42.3872C24.047 42.7442 24.7576 43.6544 25.486 44.4041C26.7474 45.7071 26.8184 45.8142 26.8184 46.5995C26.8184 47.3313 26.7651 47.4562 26.3565 47.599C25.788 47.8311 25.8235 47.8311 25.5038 47.4919C25.3439 47.3491 25.2195 46.9386 25.2195 46.5995C25.2195 45.9926 25.2195 45.9926 24.4201 45.9926H23.6206V46.8851C23.6206 48.5629 24.3668 49.3839 25.8591 49.3839C27.5468 49.3839 28.595 48.2237 28.595 46.3853C28.595 45.1181 28.2219 44.4041 27.0138 43.2975C25.7702 42.1552 25.3972 41.6018 25.3972 40.8879C25.3972 40.2632 25.6814 39.9241 26.1966 39.9241C26.7118 39.9241 26.9961 40.2632 26.9961 40.87C26.9961 41.2627 27.0671 41.3698 27.2803 41.2806C27.4402 41.227 27.7955 41.1735 28.0798 41.1735C28.5417 41.1735 28.595 41.1199 28.595 40.6202C28.595 39.7813 28.0975 38.9067 27.4402 38.6032C26.623 38.2106 25.4327 38.2463 24.7221 38.6746Z" fill="url(#paint6_linear_101_33)"/>
<path d="M30.8372 38.6171C29.789 39.1378 29.7002 39.5148 29.7002 43.6624C29.7002 47.0199 29.7357 47.4508 30.0377 47.9535C30.4819 48.6897 31.3169 48.977 32.4183 48.7615C34.035 48.4563 34.6746 47.5945 34.6746 45.7092V44.614H33.8751H33.0757V45.4938C33.0757 46.6249 32.9513 46.9301 32.4006 47.1456C31.5478 47.4688 31.4768 47.2174 31.4768 43.5546C31.4768 40.0894 31.5478 39.7662 32.2051 39.7662C32.7204 39.7662 33.0757 40.2869 33.0757 41.041V41.7412H33.8751H34.6746V40.9153C34.6746 39.2455 33.7863 38.3298 32.1519 38.3298C31.7432 38.3298 31.1392 38.4555 30.8372 38.6171Z" fill="url(#paint7_linear_101_33)"/>
<path d="M70.682 38.5813C69.6173 39.044 69.4951 39.5601 69.4951 43.6531C69.4951 46.9809 69.53 47.3546 69.8442 47.9062C70.3329 48.7426 70.9962 49.2053 71.9387 49.3477C72.9685 49.5079 73.7539 49.1341 74.1553 48.28C74.3997 47.7817 74.4695 47.1944 74.4695 45.3793V43.1192H73.2303H72.0085L72.0608 43.8666C72.1132 44.5073 72.183 44.6496 72.5321 44.6852C72.9161 44.7564 72.9335 44.792 72.8637 46.0733C72.7939 47.6927 72.4099 48.102 71.5721 47.4969C71.2754 47.2656 71.2405 46.9631 71.1882 44.0624C71.1183 40.4143 71.2231 39.916 72.0259 39.916C72.6368 39.916 72.8986 40.3787 72.8986 41.4464C72.8986 42.0515 72.8986 42.0515 73.6841 42.0515H74.4695V41.1617C74.4695 39.9694 74.103 39.1152 73.3873 38.6703C72.7066 38.261 71.5023 38.2076 70.682 38.5813Z" fill="url(#paint8_linear_101_33)"/>
<path d="M35.78 43.3042V48.2786L36.3668 48.1704C36.6886 48.1164 37.105 48.0623 37.2754 48.0623C37.5404 48.0623 37.5782 47.81 37.5214 46.0797L37.4647 44.0972H38.1082C38.4679 44.0972 38.8464 44.2053 38.9411 44.3135C39.0546 44.4396 39.1871 45.2687 39.2439 46.1518C39.3196 47.035 39.4332 47.81 39.5089 47.8821C39.5846 47.9541 40.0389 47.9722 40.4932 47.9181L41.3071 47.846L41.1935 47.1792C41.1368 46.8187 41.08 45.9896 41.08 45.3228C41.08 44.3315 41.0043 44.0431 40.6257 43.6106L40.1714 43.1059L40.6257 42.6013C41.0043 42.1868 41.08 41.8984 41.08 40.9251C41.08 38.7624 40.5121 38.3298 37.5593 38.3298H35.78V43.3042ZM39.0925 41.1054C39.0925 42.3129 39.0736 42.367 38.5625 42.5292C37.635 42.8176 37.4836 42.6193 37.4836 41.1234V39.7536L38.2975 39.8077L39.0925 39.8618V41.1054Z" fill="url(#paint9_linear_101_33)"/>
<path d="M41.8601 43.0278V47.7258H42.5871C43.008 47.7258 44.1177 47.6726 45.0743 47.6195L46.8345 47.4954V46.8217V46.1303H45.3039H43.7733V44.8006V43.471H45.0169H46.2605V42.7619V42.0527H45.0169H43.7733V40.9181V39.8012L44.6534 39.6771C45.1508 39.624 45.8396 39.5708 46.184 39.5708C46.7962 39.5708 46.8345 39.5353 46.8345 38.9503V38.3298H44.3473H41.8601V43.0278Z" fill="url(#paint10_linear_101_33)"/>
<path d="M47.9397 43.0278V47.7258H50.1505H52.3614V47.0031V46.2803H51.0009H49.6403V44.9251V43.5699H50.7628H51.8682L51.8172 42.8833L51.7661 42.2147L50.7117 42.1605L49.6403 42.1063V40.8595V39.5946H51.0009H52.3614V38.9622V38.3298H50.1505H47.9397V43.0278Z" fill="url(#paint11_linear_101_33)"/>
<path d="M53.4672 42.8948C53.4672 47.9005 53.4137 47.6714 54.5547 47.6714H55.0717L55.0895 44.3577L55.1074 41.0618L55.6779 42.8243C55.9988 43.7937 56.4445 45.2743 56.6762 46.1203L57.1041 47.6361L57.9777 47.7066C58.459 47.7419 58.8869 47.7242 58.9226 47.689C58.9582 47.6537 58.9939 45.521 58.9939 42.9653V38.3298H58.1916H57.4072L57.3537 40.9031L57.3002 43.4588L56.5158 40.9031L55.7314 38.3298H54.6082H53.4672V42.8948Z" fill="url(#paint12_linear_101_33)"/>
<path d="M60.0991 43.2432V48.1567H60.6629C60.9779 48.1567 61.3427 48.2113 61.4919 48.2659C61.7241 48.375 61.7572 47.8655 61.7572 43.3524V38.3298H60.9282H60.0991V43.2432Z" fill="url(#paint13_linear_101_33)"/>
<path d="M62.863 43.309V48.2881H63.2731C63.4871 48.2881 63.8436 48.3424 64.0754 48.3968L64.4677 48.5054L64.4855 44.9204C64.5033 40.7741 64.4677 40.756 65.7157 45.4817C66.1436 47.075 66.5359 48.433 66.5894 48.4873C66.6429 48.5597 67.0708 48.6502 67.5521 48.7227L68.3901 48.8313V43.5806V38.3298H67.5878H66.7855V41.1725L66.7677 44.0332L65.9832 41.2449C65.5374 39.724 65.1808 38.4385 65.1808 38.4023C65.1808 38.366 64.6638 38.3298 64.0219 38.3298H62.863V43.309Z" fill="url(#paint14_linear_101_33)"/>
<path fill-rule="evenodd" clip-rule="evenodd" d="M86.2366 8.23617H11.6937C6.75339 8.23617 2.7485 12.2411 2.7485 17.1813V91.7243C2.7485 96.6645 6.75339 100.669 11.6937 100.669H86.2366C91.1769 100.669 95.1818 96.6645 95.1818 91.7243V17.1813C95.1818 12.2411 91.1769 8.23617 86.2366 8.23617ZM11.6937 6.44714C5.76533 6.44714 0.959473 11.253 0.959473 17.1813V91.7243C0.959473 97.6526 5.76533 102.458 11.6937 102.458H86.2366C92.1649 102.458 96.9708 97.6526 96.9708 91.7243V17.1813C96.9708 11.253 92.1649 6.44714 86.2366 6.44714H11.6937Z" fill="url(#paint15_linear_101_33)"/>
<path d="M13.4827 102.458H83.8512L80.267 106.633L77.5518 109.869C76.4187 111.22 74.7461 112 72.9832 112H24.3507C22.5878 112 20.9152 111.22 19.7821 109.869L17.0669 106.633L13.4827 102.458Z" fill="#2E2E2E"/>
<path d="M40.2372 108.388H41.3058V109.018H39.4214V105.669H40.2372V108.388Z" fill="white"/>
<path d="M43.2788 109.052C42.964 109.052 42.6745 108.978 42.4106 108.832C42.1498 108.686 41.9414 108.482 41.7856 108.222C41.6329 107.958 41.5566 107.662 41.5566 107.334C41.5566 107.007 41.6329 106.712 41.7856 106.452C41.9414 106.191 42.1498 105.987 42.4106 105.841C42.6745 105.695 42.964 105.621 43.2788 105.621C43.5937 105.621 43.8815 105.695 44.1423 105.841C44.4063 105.987 44.6131 106.191 44.7625 106.452C44.9152 106.712 44.9915 107.007 44.9915 107.334C44.9915 107.662 44.9152 107.958 44.7625 108.222C44.6099 108.482 44.4031 108.686 44.1423 108.832C43.8815 108.978 43.5937 109.052 43.2788 109.052ZM43.2788 108.307C43.546 108.307 43.7591 108.218 43.9181 108.04C44.0803 107.862 44.1614 107.627 44.1614 107.334C44.1614 107.038 44.0803 106.803 43.9181 106.628C43.7591 106.45 43.546 106.361 43.2788 106.361C43.0085 106.361 42.7922 106.448 42.63 106.623C42.471 106.798 42.3915 107.035 42.3915 107.334C42.3915 107.63 42.471 107.867 42.63 108.045C42.7922 108.22 43.0085 108.307 43.2788 108.307Z" fill="white"/>
<path d="M47.6686 106.728C47.6081 106.617 47.5207 106.533 47.4062 106.475C47.2948 106.415 47.1629 106.385 47.0102 106.385C46.7462 106.385 46.5347 106.472 46.3757 106.647C46.2167 106.819 46.1371 107.05 46.1371 107.339C46.1371 107.647 46.2198 107.889 46.3852 108.064C46.5538 108.236 46.7844 108.322 47.077 108.322C47.2774 108.322 47.4459 108.271 47.5827 108.169C47.7226 108.067 47.8244 107.921 47.888 107.73H46.8528V107.129H48.6275V107.888C48.567 108.091 48.4637 108.28 48.3174 108.455C48.1743 108.63 47.9914 108.772 47.7687 108.88C47.5461 108.988 47.2948 109.042 47.015 109.042C46.6842 109.042 46.3884 108.971 46.1276 108.827C45.87 108.681 45.668 108.479 45.5217 108.222C45.3786 107.964 45.307 107.67 45.307 107.339C45.307 107.008 45.3786 106.714 45.5217 106.456C45.668 106.196 45.87 105.994 46.1276 105.85C46.3852 105.704 46.6794 105.631 47.0102 105.631C47.4109 105.631 47.7481 105.728 48.0216 105.922C48.2983 106.116 48.4812 106.385 48.5702 106.728H47.6686Z" fill="white"/>
<path d="M51.9513 105.669L50.7921 107.911V109.018H49.9763V107.911L48.817 105.669H49.7425L50.3913 107.072L51.0354 105.669H51.9513Z" fill="white"/>
<path d="M52.6617 109.056C52.5186 109.056 52.4009 109.015 52.3087 108.932C52.2196 108.846 52.1751 108.742 52.1751 108.617C52.1751 108.49 52.2196 108.384 52.3087 108.298C52.4009 108.212 52.5186 108.169 52.6617 108.169C52.8016 108.169 52.9161 108.212 53.0052 108.298C53.0974 108.384 53.1436 108.49 53.1436 108.617C53.1436 108.742 53.0974 108.846 53.0052 108.932C52.9161 109.015 52.8016 109.056 52.6617 109.056Z" fill="white"/>
<path d="M55.7113 108.427H54.4614L54.261 109.018H53.407L54.6188 105.669H55.5634L56.7752 109.018H55.9117L55.7113 108.427ZM55.5014 107.797L55.0863 106.571L54.676 107.797H55.5014Z" fill="#64B5FF"/>
<path d="M57.9598 105.669V109.018H57.144V105.669H57.9598Z" fill="#64B5FF"/>
<path d="M10.9368 11.3883C10.9368 5.55404 15.6663 0.824463 21.5006 0.824463H76.1838C82.018 0.824463 86.7476 5.55404 86.7476 11.3883V11.3883C86.7476 17.2225 82.018 21.9521 76.1838 21.9521H21.5006C15.6663 21.9521 10.9368 17.2225 10.9368 11.3883V11.3883Z" fill="#FF0000"/>
<path d="M34.9506 6.37817L33.1082 16.9808H30.9746L32.8097 6.37817H34.9506ZM38.2639 10.9076L37.9654 12.6116H33.2757L33.5743 10.9076H38.2639ZM39.5383 6.37817L39.247 8.08945H34.0622L34.3608 6.37817H39.5383Z" fill="white"/>
<path d="M40.7471 6.37817L44.4828 6.38546C45.1285 6.39517 45.7134 6.51411 46.2377 6.74228C46.7669 6.97045 47.1771 7.3127 47.4684 7.76904C47.7646 8.22538 47.8883 8.80552 47.8398 9.50945C47.7913 10.0872 47.6505 10.5751 47.4174 10.9731C47.1893 11.3712 46.881 11.7086 46.4926 11.9853C46.1091 12.2621 45.6673 12.4999 45.1673 12.699L44.4245 13.0558H40.9728L41.2641 11.3518L43.6381 11.3664C43.9925 11.3615 44.3153 11.2935 44.6066 11.1625C44.8979 11.0314 45.1382 10.8421 45.3275 10.5945C45.5217 10.342 45.6431 10.0362 45.6916 9.67694C45.7353 9.36138 45.7134 9.08709 45.6261 8.85407C45.5435 8.62104 45.4003 8.43899 45.1964 8.30791C44.9925 8.17684 44.7328 8.10644 44.4172 8.09673L42.5895 8.08945L41.0457 16.9808H38.912L40.7471 6.37817ZM44.7158 16.9808L43.1866 12.2548L45.3348 12.2402L46.9878 16.8643V16.9808H44.7158Z" fill="white"/>
<path d="M55.4058 15.2768L55.1073 16.9808H49.6239L49.9152 15.2768H55.4058ZM52.1653 6.37817L50.323 16.9808H48.1893L50.0244 6.37817H52.1653ZM55.4859 10.6964L55.1947 12.3567H50.4249L50.7162 10.6964H55.4859ZM56.9351 6.37817L56.6365 8.08945H51.1604L51.4663 6.37817H56.9351Z" fill="white"/>
<path d="M63.5471 15.2768L63.2486 16.9808H57.7652L58.0565 15.2768H63.5471ZM60.3066 6.37817L58.4643 16.9808H56.3306L58.1657 6.37817H60.3066ZM63.6272 10.6964L63.336 12.3567H58.5662L58.8575 10.6964H63.6272ZM65.0764 6.37817L64.7778 8.08945H59.3017L59.6076 6.37817H65.0764Z" fill="white"/>
<defs>
<linearGradient id="paint0_linear_101_33" x1="48.9651" y1="6.44714" x2="48.9651" y2="102.458" gradientUnits="userSpaceOnUse">
<stop offset="0.00267382" stop-color="#FF0000"/>
<stop offset="0.338866" stop-color="#006AB7" stop-opacity="0"/>
<stop offset="0.703548" stop-color="#006AB7" stop-opacity="0"/>
<stop offset="1" stop-color="#FF0000"/>
</linearGradient>
<linearGradient id="paint1_linear_101_33" x1="49.1355" y1="6.44714" x2="49.1355" y2="72.9821" gradientUnits="userSpaceOnUse">
<stop stop-color="white" stop-opacity="0"/>
<stop offset="0.854167" stop-color="#24F2FF"/>
<stop offset="1" stop-color="#00C5D1"/>
</linearGradient>
<linearGradient id="paint2_linear_101_33" x1="48.6453" y1="27.5569" x2="48.6453" y2="39.2708" gradientUnits="userSpaceOnUse">
<stop stop-color="#00C2FF"/>
<stop offset="1" stop-color="#006AB7"/>
</linearGradient>
<linearGradient id="paint3_linear_101_33" x1="48.6453" y1="27.5569" x2="48.6453" y2="39.2708" gradientUnits="userSpaceOnUse">
<stop stop-color="#00C2FF"/>
<stop offset="1" stop-color="#006AB7"/>
</linearGradient>
<linearGradient id="paint4_linear_101_33" x1="48.6453" y1="27.5569" x2="48.6453" y2="39.2708" gradientUnits="userSpaceOnUse">
<stop stop-color="#00C2FF"/>
<stop offset="1" stop-color="#006AB7"/>
</linearGradient>
<linearGradient id="paint5_linear_101_33" x1="48.6453" y1="27.5569" x2="48.6453" y2="39.2708" gradientUnits="userSpaceOnUse">
<stop stop-color="#00C2FF"/>
<stop offset="1" stop-color="#006AB7"/>
</linearGradient>
<linearGradient id="paint6_linear_101_33" x1="26.1078" y1="49.3839" x2="26.1078" y2="38.3297" gradientUnits="userSpaceOnUse">
<stop stop-color="#006AB7"/>
<stop offset="1" stop-color="#00C2FF"/>
</linearGradient>
<linearGradient id="paint7_linear_101_33" x1="32.1874" y1="48.8313" x2="32.1874" y2="38.3298" gradientUnits="userSpaceOnUse">
<stop stop-color="#006AB7"/>
<stop offset="1" stop-color="#00C2FF"/>
</linearGradient>
<linearGradient id="paint8_linear_101_33" x1="71.9823" y1="49.3839" x2="71.9823" y2="38.3297" gradientUnits="userSpaceOnUse">
<stop stop-color="#006AB7"/>
<stop offset="1" stop-color="#00C2FF"/>
</linearGradient>
<linearGradient id="paint9_linear_101_33" x1="38.5436" y1="48.2786" x2="38.5436" y2="38.3298" gradientUnits="userSpaceOnUse">
<stop stop-color="#006AB7"/>
<stop offset="1" stop-color="#00C2FF"/>
</linearGradient>
<linearGradient id="paint10_linear_101_33" x1="44.3473" y1="47.7258" x2="44.3473" y2="38.3298" gradientUnits="userSpaceOnUse">
<stop stop-color="#006AB7"/>
<stop offset="1" stop-color="#00C2FF"/>
</linearGradient>
<linearGradient id="paint11_linear_101_33" x1="50.1505" y1="47.7258" x2="50.1505" y2="38.3298" gradientUnits="userSpaceOnUse">
<stop stop-color="#006AB7"/>
<stop offset="1" stop-color="#00C2FF"/>
</linearGradient>
<linearGradient id="paint12_linear_101_33" x1="56.2303" y1="47.7258" x2="56.2303" y2="38.3298" gradientUnits="userSpaceOnUse">
<stop stop-color="#006AB7"/>
<stop offset="1" stop-color="#00C2FF"/>
</linearGradient>
<linearGradient id="paint13_linear_101_33" x1="60.9282" y1="48.2786" x2="60.9282" y2="38.3298" gradientUnits="userSpaceOnUse">
<stop stop-color="#006AB7"/>
<stop offset="1" stop-color="#00C2FF"/>
</linearGradient>
<linearGradient id="paint14_linear_101_33" x1="65.6266" y1="48.8313" x2="65.6266" y2="38.3298" gradientUnits="userSpaceOnUse">
<stop stop-color="#006AB7"/>
<stop offset="1" stop-color="#00C2FF"/>
</linearGradient>
<linearGradient id="paint15_linear_101_33" x1="48.9651" y1="6.44714" x2="48.9651" y2="102.458" gradientUnits="userSpaceOnUse">
<stop offset="0.00267382" stop-color="#FF0000"/>
<stop offset="0.338866" stop-color="#006AB7" stop-opacity="0"/>
<stop offset="0.703548" stop-color="#006AB7" stop-opacity="0"/>
<stop offset="1" stop-color="#FF0000"/>
</linearGradient>
</defs>
</svg>
