<svg width="217" height="104" viewBox="0 0 217 104" fill="none" xmlns="http://www.w3.org/2000/svg">
<path d="M27.2891 14.1613C27.2891 6.34025 33.6293 0 41.4504 0H202.323C210.144 0 216.485 6.34025 216.485 14.1613C216.485 21.9824 210.144 28.3227 202.323 28.3227H41.4504C33.6293 28.3227 27.2891 21.9824 27.2891 14.1613Z" fill="#F0FCFF"/>
<path d="M27.2891 51.5457C27.2891 43.7246 33.6293 37.3844 41.4504 37.3844H155.874C163.695 37.3844 170.035 43.7246 170.035 51.5457C170.035 59.3668 163.695 65.7071 155.874 65.7071H41.4504C33.6293 65.7071 27.2891 59.3668 27.2891 51.5457Z" fill="#F0FCFF"/>
<path fill-rule="evenodd" clip-rule="evenodd" d="M11.9884 22.6592V81.0039H10.8555V22.6592H11.9884Z" fill="#37A2A5" fill-opacity="0.43"/>
<path d="M27.2891 88.934C27.2891 81.113 33.6293 74.7727 41.4504 74.7727H171.735C179.556 74.7727 185.896 81.113 185.896 88.934C185.896 96.7551 179.556 103.095 171.735 103.095H41.4504C33.6293 103.095 27.2891 96.7551 27.2891 88.934Z" fill="#F0FCFF"/>
<path d="M20.4882 51.5465C20.4882 56.2391 16.6841 60.0433 11.9914 60.0433C7.29878 60.0433 3.49463 56.2391 3.49463 51.5465C3.49463 46.8538 7.29878 43.0497 11.9914 43.0497C16.6841 43.0497 20.4882 46.8538 20.4882 51.5465Z" fill="#1B8796"/>
<path fill-rule="evenodd" clip-rule="evenodd" d="M23.8863 51.546C23.8863 58.1157 18.5604 63.4416 11.9907 63.4416C5.42102 63.4416 0.0952148 58.1157 0.0952148 51.546C0.0952148 44.9763 5.42102 39.6505 11.9907 39.6505C18.5604 39.6505 23.8863 44.9763 23.8863 51.546ZM11.9907 60.0428C16.6834 60.0428 20.4875 56.2387 20.4875 51.546C20.4875 46.8534 16.6834 43.0492 11.9907 43.0492C7.29808 43.0492 3.49393 46.8534 3.49393 51.546C3.49393 56.2387 7.29808 60.0428 11.9907 60.0428Z" fill="white"/>
<path d="M20.4882 14.1622C20.4882 18.8549 16.6841 22.659 11.9914 22.659C7.29878 22.659 3.49463 18.8549 3.49463 14.1622C3.49463 9.46955 7.29878 5.66541 11.9914 5.66541C16.6841 5.66541 20.4882 9.46955 20.4882 14.1622Z" fill="#1B8796"/>
<path fill-rule="evenodd" clip-rule="evenodd" d="M23.8863 14.1616C23.8863 20.7313 18.5604 26.0572 11.9907 26.0572C5.42102 26.0572 0.0952148 20.7313 0.0952148 14.1616C0.0952148 7.59192 5.42102 2.26611 11.9907 2.26611C18.5604 2.26611 23.8863 7.59192 23.8863 14.1616ZM11.9907 22.6584C16.6834 22.6584 20.4875 18.8543 20.4875 14.1616C20.4875 9.46898 16.6834 5.66483 11.9907 5.66483C7.29808 5.66483 3.49393 9.46898 3.49393 14.1616C3.49393 18.8543 7.29808 22.6584 11.9907 22.6584Z" fill="white"/>
<path d="M20.4882 88.9327C20.4882 93.6254 16.6841 97.4295 11.9914 97.4295C7.29878 97.4295 3.49463 93.6254 3.49463 88.9327C3.49463 84.2401 7.29878 80.4359 11.9914 80.4359C16.6841 80.4359 20.4882 84.2401 20.4882 88.9327Z" fill="#1B8796"/>
<path fill-rule="evenodd" clip-rule="evenodd" d="M23.8863 88.9335C23.8863 95.5032 18.5604 100.829 11.9907 100.829C5.42102 100.829 0.0952148 95.5032 0.0952148 88.9335C0.0952148 82.3638 5.42102 77.038 11.9907 77.038C18.5604 77.038 23.8863 82.3638 23.8863 88.9335ZM11.9907 97.4303C16.6834 97.4303 20.4875 93.6261 20.4875 88.9335C20.4875 84.2408 16.6834 80.4367 11.9907 80.4367C7.29808 80.4367 3.49393 84.2408 3.49393 88.9335C3.49393 93.6261 7.29808 97.4303 11.9907 97.4303Z" fill="white"/>
<path d="M9.96729 12.95V11.5089H12.4778V18.1251H10.8645V12.95H9.96729Z" fill="white"/>
<path d="M9.75641 53.1365C9.96184 52.9733 10.0555 52.8978 10.0374 52.9099C10.6295 52.4205 11.0947 52.0187 11.4331 51.7045C11.7775 51.3903 12.0675 51.061 12.3032 50.7166C12.5388 50.3722 12.6566 50.0368 12.6566 49.7106C12.6566 49.4628 12.5992 49.2695 12.4844 49.1305C12.3696 48.9915 12.1974 48.9221 11.9678 48.9221C11.7382 48.9221 11.557 49.0097 11.424 49.1849C11.2972 49.3541 11.2337 49.5958 11.2337 49.9099H9.73828C9.75037 49.3964 9.85912 48.9674 10.0646 48.623C10.276 48.2786 10.551 48.0248 10.8893 47.8617C11.2337 47.6985 11.6144 47.6169 12.0313 47.6169C12.7503 47.6169 13.2911 47.8012 13.6536 48.1698C14.0222 48.5384 14.2065 49.0187 14.2065 49.6109C14.2065 50.2574 13.9859 50.8586 13.5448 51.4144C13.1038 51.9643 12.5418 52.502 11.8591 53.0277H14.3062V54.2875H9.75641V53.1365Z" fill="white"/>
<path d="M9.70559 87.0141C9.72976 86.3676 9.94124 85.8692 10.34 85.5187C10.7388 85.1683 11.2796 84.993 11.9623 84.993C12.4155 84.993 12.8022 85.0716 13.1224 85.2287C13.4487 85.3858 13.6934 85.6003 13.8566 85.8722C14.0257 86.1441 14.1103 86.4492 14.1103 86.7876C14.1103 87.1863 14.0106 87.5126 13.8112 87.7664C13.6119 88.0141 13.3792 88.1833 13.1134 88.2739V88.3102C13.4578 88.425 13.7297 88.6153 13.9291 88.8812C14.1285 89.147 14.2282 89.4884 14.2282 89.9053C14.2282 90.2799 14.1405 90.6123 13.9653 90.9023C13.7961 91.1863 13.5454 91.4098 13.2131 91.573C12.8868 91.7361 12.4971 91.8177 12.0439 91.8177C11.3189 91.8177 10.7388 91.6394 10.3038 91.2829C9.87477 90.9265 9.64819 90.3887 9.62402 89.6697H11.1285C11.1346 89.9355 11.2101 90.147 11.3551 90.3041C11.5001 90.4552 11.7116 90.5307 11.9895 90.5307C12.2252 90.5307 12.4064 90.4642 12.5333 90.3313C12.6663 90.1923 12.7327 90.0111 12.7327 89.7875C12.7327 89.4975 12.6391 89.289 12.4518 89.1621C12.2705 89.0292 11.9774 88.9627 11.5726 88.9627H11.2826V87.703H11.5726C11.8808 87.703 12.1285 87.6516 12.3158 87.5489C12.5092 87.4401 12.6058 87.2498 12.6058 86.9779C12.6058 86.7604 12.5454 86.5912 12.4246 86.4704C12.3037 86.3495 12.1376 86.2891 11.9261 86.2891C11.6965 86.2891 11.5243 86.3586 11.4095 86.4975C11.3007 86.6365 11.2373 86.8087 11.2192 87.0141H9.70559Z" fill="white"/>
<path d="M162.1 88.934C162.1 83.6157 166.411 79.3043 171.73 79.3043C177.048 79.3043 181.36 83.6157 181.36 88.934C181.36 94.2524 177.048 98.5637 171.73 98.5637C166.411 98.5637 162.1 94.2524 162.1 88.934Z" fill="white"/>
<path fill-rule="evenodd" clip-rule="evenodd" d="M178.761 85.767L170.029 94.4984L165.83 90.2986L167.432 88.6964L170.029 91.2941L177.159 84.1648L178.761 85.767Z" fill="#00E676"/>
<path d="M146.241 51.5463C146.241 46.228 150.552 41.9166 155.871 41.9166C161.189 41.9166 165.5 46.228 165.5 51.5463C165.5 56.8647 161.189 61.176 155.871 61.176C150.552 61.176 146.241 56.8647 146.241 51.5463Z" fill="white"/>
<path d="M192.686 14.1619C192.686 8.84359 196.997 4.53223 202.316 4.53223C207.634 4.53223 211.945 8.84359 211.945 14.1619C211.945 19.4803 207.634 23.7916 202.316 23.7916C196.997 23.7916 192.686 19.4803 192.686 14.1619Z" fill="white"/>
<path d="M44.2213 15.7087H41.5839L41.1308 16.9956H40.0522L42.309 10.6876H43.5053L45.7621 16.9956H44.6745L44.2213 15.7087ZM43.9313 14.8658L42.9072 11.9383L41.874 14.8658H43.9313Z" fill="#3A7185"/>
<path d="M53.8217 16.9956H52.7885L49.6798 12.2918V16.9956H48.6466V10.6876H49.6798L52.7885 15.3824V10.6876H53.8217V16.9956Z" fill="#3A7185"/>
<path d="M59.1573 17.0591C58.7343 17.0591 58.3537 16.9866 58.0153 16.8416C57.677 16.6905 57.4111 16.479 57.2178 16.2071C57.0244 15.9352 56.9277 15.618 56.9277 15.2555H58.0335C58.0576 15.5274 58.1634 15.751 58.3507 15.9262C58.544 16.1014 58.8129 16.189 59.1573 16.189C59.5138 16.189 59.7917 16.1044 59.9911 15.9352C60.1905 15.76 60.2902 15.5365 60.2902 15.2646C60.2902 15.0531 60.2268 14.8809 60.0999 14.748C59.979 14.615 59.825 14.5123 59.6377 14.4398C59.4564 14.3673 59.2026 14.2888 58.8763 14.2042C58.4655 14.0954 58.1301 13.9866 57.8703 13.8779C57.6165 13.7631 57.399 13.5879 57.2178 13.3522C57.0365 13.1166 56.9459 12.8024 56.9459 12.4096C56.9459 12.0471 57.0365 11.7299 57.2178 11.458C57.399 11.1861 57.6528 10.9776 57.9791 10.8326C58.3054 10.6876 58.683 10.6151 59.112 10.6151C59.7222 10.6151 60.2207 10.7692 60.6074 11.0773C61.0002 11.3794 61.2177 11.7964 61.26 12.3281H60.118C60.0999 12.0985 59.9911 11.9021 59.7917 11.739C59.5923 11.5758 59.3295 11.4942 59.0032 11.4942C58.7072 11.4942 58.4655 11.5698 58.2782 11.7208C58.0909 11.8719 57.9972 12.0894 57.9972 12.3734C57.9972 12.5667 58.0546 12.7269 58.1694 12.8537C58.2902 12.9746 58.4413 13.0713 58.6226 13.1438C58.8038 13.2163 59.0516 13.2948 59.3658 13.3794C59.7827 13.4942 60.121 13.609 60.3808 13.7238C60.6467 13.8386 60.8703 14.0169 61.0515 14.2585C61.2388 14.4942 61.3325 14.8114 61.3325 15.2102C61.3325 15.5304 61.2449 15.8325 61.0696 16.1165C60.9005 16.4005 60.6497 16.6301 60.3174 16.8053C59.9911 16.9745 59.6044 17.0591 59.1573 17.0591Z" fill="#3A7185"/>
<path d="M72.6572 10.6967L70.7901 16.9956H69.621L68.2977 12.2284L66.8929 16.9956L65.7328 17.0047L63.9474 10.6967H65.044L66.3491 15.8265L67.763 10.6967H68.9231L70.2373 15.7993L71.5514 10.6967H72.6572Z" fill="#3A7185"/>
<path d="M76.4458 11.5305V13.3794H78.621V14.2223H76.4458V16.1528H78.8929V16.9956H75.4126V10.6876H78.8929V11.5305H76.4458Z" fill="#3A7185"/>
<path d="M85.3406 16.9956L83.8905 14.4761H83.102V16.9956H82.0688V10.6967H84.244C84.7273 10.6967 85.1352 10.7813 85.4675 10.9505C85.8059 11.1196 86.0566 11.3462 86.2198 11.6302C86.3889 11.9142 86.4735 12.2314 86.4735 12.5818C86.4735 12.9927 86.3527 13.3673 86.111 13.7057C85.8753 14.038 85.5098 14.2646 85.0143 14.3854L86.5732 16.9956H85.3406ZM83.102 13.6513H84.244C84.6307 13.6513 84.9207 13.5546 85.114 13.3613C85.3134 13.1679 85.4131 12.9081 85.4131 12.5818C85.4131 12.2556 85.3165 12.0018 85.1231 11.8205C84.9298 11.6332 84.6367 11.5396 84.244 11.5396H83.102V13.6513Z" fill="#3A7185"/>
<path d="M97.663 10.6967V11.5396H94.9894V13.3975H97.0739V14.2404H94.9894V16.9956H93.9562V10.6967H97.663Z" fill="#3A7185"/>
<path d="M101.557 11.5305V13.3794H103.732V14.2223H101.557V16.1528H104.004V16.9956H100.524V10.6876H104.004V11.5305H101.557Z" fill="#3A7185"/>
<path d="M115.382 10.6967L113.515 16.9956H112.346L111.023 12.2284L109.618 16.9956L108.458 17.0047L106.672 10.6967H107.769L109.074 15.8265L110.488 10.6967H111.648L112.962 15.7993L114.277 10.6967H115.382Z" fill="#3A7185"/>
<path d="M127.271 18.1376L126.166 16.9413C125.894 17.0198 125.595 17.0591 125.268 17.0591C124.682 17.0591 124.141 16.9231 123.646 16.6512C123.157 16.3733 122.767 15.9896 122.477 15.5002C122.193 15.0047 122.051 14.4489 122.051 13.8326C122.051 13.2163 122.193 12.6634 122.477 12.174C122.767 11.6846 123.157 11.3039 123.646 11.032C124.141 10.7541 124.682 10.6151 125.268 10.6151C125.86 10.6151 126.401 10.7541 126.891 11.032C127.386 11.3039 127.776 11.6846 128.06 12.174C128.344 12.6634 128.486 13.2163 128.486 13.8326C128.486 14.4126 128.359 14.9383 128.105 15.4096C127.857 15.8748 127.513 16.2494 127.072 16.5334L128.585 18.1376H127.271ZM123.111 13.8326C123.111 14.2978 123.202 14.7087 123.383 15.0652C123.57 15.4156 123.827 15.6875 124.154 15.8809C124.48 16.0682 124.851 16.1618 125.268 16.1618C125.685 16.1618 126.057 16.0682 126.383 15.8809C126.709 15.6875 126.963 15.4156 127.144 15.0652C127.332 14.7087 127.425 14.2978 127.425 13.8326C127.425 13.3673 127.332 12.9595 127.144 12.609C126.963 12.2586 126.709 11.9897 126.383 11.8024C126.057 11.6151 125.685 11.5214 125.268 11.5214C124.851 11.5214 124.48 11.6151 124.154 11.8024C123.827 11.9897 123.57 12.2586 123.383 12.609C123.202 12.9595 123.111 13.3673 123.111 13.8326Z" fill="#3A7185"/>
<path d="M132.456 10.6967V14.7117C132.456 15.189 132.58 15.5485 132.828 15.7902C133.082 16.0319 133.432 16.1528 133.879 16.1528C134.333 16.1528 134.683 16.0319 134.931 15.7902C135.185 15.5485 135.311 15.189 135.311 14.7117V10.6967H136.345V14.6936C136.345 15.2072 136.233 15.6422 136.009 15.9987C135.786 16.3552 135.487 16.621 135.112 16.7963C134.737 16.9715 134.324 17.0591 133.87 17.0591C133.417 17.0591 133.003 16.9715 132.629 16.7963C132.26 16.621 131.967 16.3552 131.75 15.9987C131.532 15.6422 131.423 15.2072 131.423 14.6936V10.6967H132.456Z" fill="#3A7185"/>
<path d="M140.626 11.5305V13.3794H142.802V14.2223H140.626V16.1528H143.073V16.9956H139.593V10.6876H143.073V11.5305H140.626Z" fill="#3A7185"/>
<path d="M148.325 17.0591C147.902 17.0591 147.521 16.9866 147.183 16.8416C146.845 16.6905 146.579 16.479 146.385 16.2071C146.192 15.9352 146.095 15.618 146.095 15.2555H147.201C147.225 15.5274 147.331 15.751 147.518 15.9262C147.712 16.1014 147.98 16.189 148.325 16.189C148.681 16.189 148.959 16.1044 149.159 15.9352C149.358 15.76 149.458 15.5365 149.458 15.2646C149.458 15.0531 149.394 14.8809 149.267 14.748C149.147 14.615 148.993 14.5123 148.805 14.4398C148.624 14.3673 148.37 14.2888 148.044 14.2042C147.633 14.0954 147.298 13.9866 147.038 13.8779C146.784 13.7631 146.567 13.5879 146.385 13.3522C146.204 13.1166 146.113 12.8024 146.113 12.4096C146.113 12.0471 146.204 11.7299 146.385 11.458C146.567 11.1861 146.82 10.9776 147.147 10.8326C147.473 10.6876 147.851 10.6151 148.28 10.6151C148.89 10.6151 149.388 10.7692 149.775 11.0773C150.168 11.3794 150.385 11.7964 150.428 12.3281H149.286C149.267 12.0985 149.159 11.9021 148.959 11.739C148.76 11.5758 148.497 11.4942 148.171 11.4942C147.875 11.4942 147.633 11.5698 147.446 11.7208C147.258 11.8719 147.165 12.0894 147.165 12.3734C147.165 12.5667 147.222 12.7269 147.337 12.8537C147.458 12.9746 147.609 13.0713 147.79 13.1438C147.971 13.2163 148.219 13.2948 148.533 13.3794C148.95 13.4942 149.289 13.609 149.548 13.7238C149.814 13.8386 150.038 14.0169 150.219 14.2585C150.406 14.4942 150.5 14.8114 150.5 15.2102C150.5 15.5304 150.412 15.8325 150.237 16.1165C150.068 16.4005 149.817 16.6301 149.485 16.8053C149.159 16.9745 148.772 17.0591 148.325 17.0591Z" fill="#3A7185"/>
<path d="M157.692 10.6967V11.5396H156.015V16.9956H154.982V11.5396H153.296V10.6967H157.692Z" fill="#3A7185"/>
<path d="M161.675 10.6967V16.9956H160.642V10.6967H161.675Z" fill="#3A7185"/>
<path d="M167.808 17.0591C167.221 17.0591 166.681 16.9231 166.185 16.6512C165.696 16.3733 165.306 15.9896 165.016 15.5002C164.732 15.0047 164.59 14.4489 164.59 13.8326C164.59 13.2163 164.732 12.6634 165.016 12.174C165.306 11.6846 165.696 11.3039 166.185 11.032C166.681 10.7541 167.221 10.6151 167.808 10.6151C168.4 10.6151 168.94 10.7541 169.43 11.032C169.925 11.3039 170.315 11.6846 170.599 12.174C170.883 12.6634 171.025 13.2163 171.025 13.8326C171.025 14.4489 170.883 15.0047 170.599 15.5002C170.315 15.9896 169.925 16.3733 169.43 16.6512C168.94 16.9231 168.4 17.0591 167.808 17.0591ZM167.808 16.1618C168.224 16.1618 168.596 16.0682 168.922 15.8809C169.249 15.6875 169.502 15.4156 169.684 15.0652C169.871 14.7087 169.965 14.2978 169.965 13.8326C169.965 13.3673 169.871 12.9595 169.684 12.609C169.502 12.2586 169.249 11.9897 168.922 11.8024C168.596 11.6151 168.224 11.5214 167.808 11.5214C167.391 11.5214 167.019 11.6151 166.693 11.8024C166.367 11.9897 166.11 12.2586 165.922 12.609C165.741 12.9595 165.651 13.3673 165.651 13.8326C165.651 14.2978 165.741 14.7087 165.922 15.0652C166.11 15.4156 166.367 15.6875 166.693 15.8809C167.019 16.0682 167.391 16.1618 167.808 16.1618Z" fill="#3A7185"/>
<path d="M179.12 16.9956H178.087L174.978 12.2918V16.9956H173.945V10.6876H174.978L178.087 15.3824V10.6876H179.12V16.9956Z" fill="#3A7185"/>
<path d="M184.456 17.0591C184.033 17.0591 183.652 16.9866 183.314 16.8416C182.975 16.6905 182.71 16.479 182.516 16.2071C182.323 15.9352 182.226 15.618 182.226 15.2555H183.332C183.356 15.5274 183.462 15.751 183.649 15.9262C183.842 16.1014 184.111 16.189 184.456 16.189C184.812 16.189 185.09 16.1044 185.29 15.9352C185.489 15.76 185.589 15.5365 185.589 15.2646C185.589 15.0531 185.525 14.8809 185.398 14.748C185.277 14.615 185.123 14.5123 184.936 14.4398C184.755 14.3673 184.501 14.2888 184.175 14.2042C183.764 14.0954 183.429 13.9866 183.169 13.8779C182.915 13.7631 182.697 13.5879 182.516 13.3522C182.335 13.1166 182.244 12.8024 182.244 12.4096C182.244 12.0471 182.335 11.7299 182.516 11.458C182.697 11.1861 182.951 10.9776 183.277 10.8326C183.604 10.6876 183.981 10.6151 184.41 10.6151C185.021 10.6151 185.519 10.7692 185.906 11.0773C186.299 11.3794 186.516 11.7964 186.558 12.3281H185.416C185.398 12.0985 185.29 11.9021 185.09 11.739C184.891 11.5758 184.628 11.4942 184.302 11.4942C184.006 11.4942 183.764 11.5698 183.577 11.7208C183.389 11.8719 183.296 12.0894 183.296 12.3734C183.296 12.5667 183.353 12.7269 183.468 12.8537C183.589 12.9746 183.74 13.0713 183.921 13.1438C184.102 13.2163 184.35 13.2948 184.664 13.3794C185.081 13.4942 185.419 13.609 185.679 13.7238C185.945 13.8386 186.169 14.0169 186.35 14.2585C186.537 14.4942 186.631 14.8114 186.631 15.2102C186.631 15.5304 186.543 15.8325 186.368 16.1165C186.199 16.4005 185.948 16.6301 185.616 16.8053C185.29 16.9745 184.903 17.0591 184.456 17.0591Z" fill="#3A7185"/>
<path d="M41.4517 48.0805V52.0955C41.4517 52.5728 41.5755 52.9323 41.8233 53.174C42.077 53.4157 42.4275 53.5365 42.8746 53.5365C43.3278 53.5365 43.6782 53.4157 43.9259 53.174C44.1797 52.9323 44.3066 52.5728 44.3066 52.0955V48.0805H45.3398V52.0774C45.3398 52.591 45.228 53.026 45.0045 53.3825C44.7809 53.739 44.4818 54.0048 44.1072 54.18C43.7326 54.3553 43.3187 54.4429 42.8655 54.4429C42.4124 54.4429 41.9985 54.3553 41.6239 54.18C41.2553 54.0048 40.9623 53.739 40.7447 53.3825C40.5272 53.026 40.4185 52.591 40.4185 52.0774V48.0805H41.4517Z" fill="#3A7185"/>
<path d="M52.9931 49.9566C52.9931 50.2768 52.9176 50.5789 52.7665 50.8629C52.6155 51.1469 52.3738 51.3795 52.0414 51.5608C51.7091 51.736 51.2832 51.8236 50.7635 51.8236H49.6216V54.3794H48.5883V48.0805H50.7635C51.2469 48.0805 51.6547 48.1651 51.9871 48.3342C52.3254 48.4974 52.5762 48.7209 52.7393 49.0049C52.9085 49.2889 52.9931 49.6061 52.9931 49.9566ZM50.7635 50.9807C51.1563 50.9807 51.4493 50.8931 51.6427 50.7179C51.836 50.5366 51.9327 50.2828 51.9327 49.9566C51.9327 49.2678 51.543 48.9234 50.7635 48.9234H49.6216V50.9807H50.7635Z" fill="#3A7185"/>
<path d="M56.915 53.5456H59.0449V54.3794H55.8818V48.0805H56.915V53.5456Z" fill="#3A7185"/>
<path d="M64.6852 54.4429C64.0992 54.4429 63.5584 54.3069 63.0629 54.035C62.5735 53.7571 62.1838 53.3734 61.8938 52.884C61.6098 52.3885 61.4678 51.8327 61.4678 51.2164C61.4678 50.6001 61.6098 50.0472 61.8938 49.5578C62.1838 49.0684 62.5735 48.6877 63.0629 48.4158C63.5584 48.1379 64.0992 47.9989 64.6852 47.9989C65.2774 47.9989 65.8182 48.1379 66.3076 48.4158C66.803 48.6877 67.1928 49.0684 67.4767 49.5578C67.7607 50.0472 67.9027 50.6001 67.9027 51.2164C67.9027 51.8327 67.7607 52.3885 67.4767 52.884C67.1928 53.3734 66.803 53.7571 66.3076 54.035C65.8182 54.3069 65.2774 54.4429 64.6852 54.4429ZM64.6852 53.5456C65.1022 53.5456 65.4738 53.452 65.8 53.2647C66.1263 53.0713 66.3801 52.7994 66.5613 52.449C66.7486 52.0925 66.8423 51.6816 66.8423 51.2164C66.8423 50.7511 66.7486 50.3433 66.5613 49.9928C66.3801 49.6424 66.1263 49.3735 65.8 49.1862C65.4738 48.9989 65.1022 48.9052 64.6852 48.9052C64.2683 48.9052 63.8967 48.9989 63.5705 49.1862C63.2442 49.3735 62.9874 49.6424 62.8001 49.9928C62.6188 50.3433 62.5282 50.7511 62.5282 51.2164C62.5282 51.6816 62.6188 52.0925 62.8001 52.449C62.9874 52.7994 63.2442 53.0713 63.5705 53.2647C63.8967 53.452 64.2683 53.5456 64.6852 53.5456Z" fill="#3A7185"/>
<path d="M74.6202 53.0925H71.9828L71.5296 54.3794H70.4511L72.7079 48.0714H73.9042L76.161 54.3794H75.0734L74.6202 53.0925ZM74.3302 52.2496L73.306 49.3221L72.2728 52.2496H74.3302Z" fill="#3A7185"/>
<path d="M81.1028 48.0805C81.7735 48.0805 82.3596 48.2104 82.8611 48.4702C83.3687 48.724 83.7584 49.0925 84.0303 49.5759C84.3082 50.0532 84.4472 50.6121 84.4472 51.2526C84.4472 51.8931 84.3082 52.449 84.0303 52.9202C83.7584 53.3915 83.3687 53.7541 82.8611 54.0078C82.3596 54.2556 81.7735 54.3794 81.1028 54.3794H79.0455V48.0805H81.1028ZM81.1028 53.5365C81.84 53.5365 82.4049 53.3372 82.7977 52.9384C83.1904 52.5396 83.3868 51.9777 83.3868 51.2526C83.3868 50.5215 83.1904 49.9505 82.7977 49.5397C82.4049 49.1288 81.84 48.9234 81.1028 48.9234H80.0787V53.5365H81.1028Z" fill="#3A7185"/>
<path d="M92.6653 48.0805V54.3794H91.6321V48.0805H92.6653Z" fill="#3A7185"/>
<path d="M102.559 48.0805V54.3794H101.526V50.0653L99.6048 54.3794H98.8888L96.9583 50.0653V54.3794H95.9251V48.0805H97.0399L99.2513 53.0199L101.454 48.0805H102.559Z" fill="#3A7185"/>
<path d="M109.618 53.0925H106.981L106.528 54.3794H105.449L107.706 48.0714H108.902L111.159 54.3794H110.071L109.618 53.0925ZM109.328 52.2496L108.304 49.3221L107.271 52.2496H109.328Z" fill="#3A7185"/>
<path d="M118.602 49.8931C118.439 49.5789 118.213 49.3433 117.923 49.1862C117.633 49.023 117.297 48.9415 116.917 48.9415C116.5 48.9415 116.128 49.0351 115.802 49.2224C115.475 49.4097 115.219 49.6756 115.031 50.02C114.85 50.3644 114.759 50.7632 114.759 51.2164C114.759 51.6695 114.85 52.0713 115.031 52.4218C115.219 52.7662 115.475 53.032 115.802 53.2193C116.128 53.4066 116.5 53.5003 116.917 53.5003C117.478 53.5003 117.935 53.3432 118.285 53.029C118.636 52.7148 118.85 52.2888 118.929 51.7511H116.563V50.9263H120.034V51.733C119.968 52.2224 119.793 52.6725 119.509 53.0834C119.231 53.4943 118.865 53.8236 118.412 54.0713C117.965 54.313 117.466 54.4338 116.917 54.4338C116.324 54.4338 115.784 54.2979 115.294 54.026C114.805 53.748 114.415 53.3643 114.125 52.8749C113.841 52.3855 113.699 51.8327 113.699 51.2164C113.699 50.6001 113.841 50.0472 114.125 49.5578C114.415 49.0684 114.805 48.6877 115.294 48.4158C115.79 48.1379 116.33 47.9989 116.917 47.9989C117.587 47.9989 118.182 48.1651 118.702 48.4974C119.228 48.8237 119.608 49.2889 119.844 49.8931H118.602Z" fill="#3A7185"/>
<path d="M123.99 48.9143V50.7632H126.165V51.6061H123.99V53.5365H126.437V54.3794H122.957V48.0714H126.437V48.9143H123.99Z" fill="#3A7185"/>
<path d="M131.688 54.4429C131.265 54.4429 130.885 54.3704 130.546 54.2254C130.208 54.0743 129.942 53.8628 129.749 53.5909C129.555 53.319 129.459 53.0018 129.459 52.6393H130.564C130.589 52.9112 130.694 53.1347 130.882 53.31C131.075 53.4852 131.344 53.5728 131.688 53.5728C132.045 53.5728 132.323 53.4882 132.522 53.319C132.721 53.1438 132.821 52.9202 132.821 52.6484C132.821 52.4369 132.758 52.2647 132.631 52.1317C132.51 51.9988 132.356 51.8961 132.169 51.8236C131.987 51.7511 131.734 51.6725 131.407 51.588C130.996 51.4792 130.661 51.3704 130.401 51.2617C130.147 51.1469 129.93 50.9716 129.749 50.736C129.567 50.5004 129.477 50.1862 129.477 49.7934C129.477 49.4309 129.567 49.1137 129.749 48.8418C129.93 48.5699 130.184 48.3614 130.51 48.2164C130.836 48.0714 131.214 47.9989 131.643 47.9989C132.253 47.9989 132.752 48.153 133.138 48.4611C133.531 48.7632 133.749 49.1801 133.791 49.7119H132.649C132.631 49.4823 132.522 49.2859 132.323 49.1227C132.123 48.9596 131.86 48.878 131.534 48.878C131.238 48.878 130.996 48.9536 130.809 49.1046C130.622 49.2557 130.528 49.4732 130.528 49.7572C130.528 49.9505 130.586 50.1106 130.7 50.2375C130.821 50.3584 130.972 50.455 131.154 50.5275C131.335 50.6001 131.583 50.6786 131.897 50.7632C132.314 50.878 132.652 50.9928 132.912 51.1076C133.178 51.2224 133.401 51.4006 133.582 51.6423C133.77 51.878 133.863 52.1952 133.863 52.594C133.863 52.9142 133.776 53.2163 133.601 53.5003C133.431 53.7843 133.181 54.0139 132.848 54.1891C132.522 54.3583 132.135 54.4429 131.688 54.4429Z" fill="#3A7185"/>
<path d="M43.702 91.763L42.2519 89.2434H41.4634V91.763H40.4302V85.464H42.6054C43.0887 85.464 43.4966 85.5486 43.8289 85.7178C44.1673 85.887 44.418 86.1135 44.5811 86.3975C44.7503 86.6815 44.8349 86.9987 44.8349 87.3492C44.8349 87.76 44.7141 88.1347 44.4724 88.473C44.2367 88.8053 43.8712 89.0319 43.3757 89.1528L44.9346 91.763H43.702ZM41.4634 88.4186H42.6054C42.9921 88.4186 43.2821 88.322 43.4754 88.1286C43.6748 87.9353 43.7745 87.6755 43.7745 87.3492C43.7745 87.0229 43.6778 86.7691 43.4845 86.5879C43.2911 86.4006 42.9981 86.3069 42.6054 86.3069H41.4634V88.4186Z" fill="#3A7185"/>
<path d="M49.0932 86.2978V88.1467H51.2683V88.9896H49.0932V90.9201H51.5402V91.763H48.0599V85.455H51.5402V86.2978H49.0932Z" fill="#3A7185"/>
<path d="M59.1209 87.3401C59.1209 87.6603 59.0453 87.9625 58.8943 88.2464C58.7432 88.5304 58.5015 88.763 58.1692 88.9443C57.8369 89.1195 57.4109 89.2071 56.8913 89.2071H55.7493V91.763H54.7161V85.464H56.8913C57.3747 85.464 57.7825 85.5486 58.1148 85.7178C58.4532 85.8809 58.704 86.1045 58.8671 86.3885C59.0363 86.6724 59.1209 86.9897 59.1209 87.3401ZM56.8913 88.3643C57.2841 88.3643 57.5771 88.2766 57.7704 88.1014C57.9638 87.9202 58.0605 87.6664 58.0605 87.3401C58.0605 86.6513 57.6708 86.3069 56.8913 86.3069H55.7493V88.3643H56.8913Z" fill="#3A7185"/>
<path d="M64.8826 91.8264C64.2965 91.8264 63.7558 91.6905 63.2603 91.4186C62.7709 91.1406 62.3812 90.757 62.0911 90.2675C61.8072 89.7721 61.6652 89.2162 61.6652 88.5999C61.6652 87.9836 61.8072 87.4307 62.0911 86.9413C62.3812 86.4519 62.7709 86.0713 63.2603 85.7994C63.7558 85.5214 64.2965 85.3824 64.8826 85.3824C65.4748 85.3824 66.0155 85.5214 66.5049 85.7994C67.0004 86.0713 67.3901 86.4519 67.6741 86.9413C67.9581 87.4307 68.1001 87.9836 68.1001 88.5999C68.1001 89.2162 67.9581 89.7721 67.6741 90.2675C67.3901 90.757 67.0004 91.1406 66.5049 91.4186C66.0155 91.6905 65.4748 91.8264 64.8826 91.8264ZM64.8826 90.9292C65.2995 90.9292 65.6711 90.8355 65.9974 90.6482C66.3237 90.4548 66.5775 90.183 66.7587 89.8325C66.946 89.476 67.0397 89.0651 67.0397 88.5999C67.0397 88.1347 66.946 87.7268 66.7587 87.3764C66.5775 87.0259 66.3237 86.757 65.9974 86.5697C65.6711 86.3824 65.2995 86.2888 64.8826 86.2888C64.4657 86.2888 64.0941 86.3824 63.7678 86.5697C63.4416 86.757 63.1848 87.0259 62.9975 87.3764C62.8162 87.7268 62.7256 88.1347 62.7256 88.5999C62.7256 89.0651 62.8162 89.476 62.9975 89.8325C63.1848 90.183 63.4416 90.4548 63.7678 90.6482C64.0941 90.8355 64.4657 90.9292 64.8826 90.9292Z" fill="#3A7185"/>
<path d="M74.2919 91.763L72.8418 89.2434H72.0533V91.763H71.0201V85.464H73.1953C73.6786 85.464 74.0865 85.5486 74.4188 85.7178C74.7572 85.887 75.0079 86.1135 75.171 86.3975C75.3402 86.6815 75.4248 86.9987 75.4248 87.3492C75.4248 87.76 75.304 88.1347 75.0623 88.473C74.8266 88.8053 74.4611 89.0319 73.9656 89.1528L75.5245 91.763H74.2919ZM72.0533 88.4186H73.1953C73.582 88.4186 73.872 88.322 74.0653 88.1286C74.2647 87.9353 74.3644 87.6755 74.3644 87.3492C74.3644 87.0229 74.2677 86.7691 74.0744 86.5879C73.881 86.4006 73.588 86.3069 73.1953 86.3069H72.0533V88.4186Z" fill="#3A7185"/>
<path d="M82.7193 85.464V86.3069H81.0426V91.763H80.0093V86.3069H78.3236V85.464H82.7193Z" fill="#3A7185"/>
<path d="M94.4853 87.2767C94.3222 86.9625 94.0956 86.7268 93.8056 86.5697C93.5156 86.4066 93.1802 86.325 92.7996 86.325C92.3827 86.325 92.0111 86.4187 91.6848 86.606C91.3585 86.7933 91.1017 87.0591 90.9144 87.4036C90.7331 87.748 90.6425 88.1467 90.6425 88.5999C90.6425 89.0531 90.7331 89.4549 90.9144 89.8053C91.1017 90.1497 91.3585 90.4156 91.6848 90.6029C92.0111 90.7902 92.3827 90.8838 92.7996 90.8838C93.3615 90.8838 93.8177 90.7267 94.1681 90.4126C94.5186 90.0984 94.7331 89.6724 94.8116 89.1346H92.4461V88.3099H95.9173V89.1165C95.8509 89.6059 95.6756 90.0561 95.3917 90.4669C95.1137 90.8778 94.7482 91.2071 94.295 91.4548C93.8479 91.6965 93.3494 91.8174 92.7996 91.8174C92.2074 91.8174 91.6667 91.6814 91.1772 91.4095C90.6878 91.1316 90.2981 90.7479 90.0081 90.2585C89.7241 89.7691 89.5821 89.2162 89.5821 88.5999C89.5821 87.9836 89.7241 87.4307 90.0081 86.9413C90.2981 86.4519 90.6878 86.0713 91.1772 85.7994C91.6727 85.5214 92.2135 85.3824 92.7996 85.3824C93.4703 85.3824 94.0654 85.5486 94.585 85.8809C95.1107 86.2072 95.4914 86.6724 95.727 87.2767H94.4853Z" fill="#3A7185"/>
<path d="M99.8729 86.2978V88.1467H102.048V88.9896H99.8729V90.9201H102.32V91.763H98.8397V85.455H102.32V86.2978H99.8729Z" fill="#3A7185"/>
<path d="M110.671 91.763H109.638L106.529 87.0591V91.763H105.496V85.455H106.529L109.638 90.1497V85.455H110.671V91.763Z" fill="#3A7185"/>
<path d="M114.964 86.2978V88.1467H117.139V88.9896H114.964V90.9201H117.411V91.763H113.931V85.455H117.411V86.2978H114.964Z" fill="#3A7185"/>
<path d="M123.859 91.763L122.409 89.2434H121.62V91.763H120.587V85.464H122.762C123.246 85.464 123.654 85.5486 123.986 85.7178C124.324 85.887 124.575 86.1135 124.738 86.3975C124.907 86.6815 124.992 86.9987 124.992 87.3492C124.992 87.76 124.871 88.1347 124.629 88.473C124.394 88.8053 124.028 89.0319 123.533 89.1528L125.092 91.763H123.859ZM121.62 88.4186H122.762C123.149 88.4186 123.439 88.322 123.632 88.1286C123.832 87.9353 123.932 87.6755 123.932 87.3492C123.932 87.0229 123.835 86.7691 123.642 86.5879C123.448 86.4006 123.155 86.3069 122.762 86.3069H121.62V88.4186Z" fill="#3A7185"/>
<path d="M132.015 90.476H129.377L128.924 91.763H127.845L130.102 85.455H131.299L133.555 91.763H132.468L132.015 90.476ZM131.724 89.6331L130.7 86.7057L129.667 89.6331H131.724Z" fill="#3A7185"/>
<path d="M140.509 85.464V86.3069H138.832V91.763H137.799V86.3069H136.113V85.464H140.509Z" fill="#3A7185"/>
<path d="M144.492 86.2978V88.1467H146.667V88.9896H144.492V90.9201H146.939V91.763H143.459V85.455H146.939V86.2978H144.492Z" fill="#3A7185"/>
<path d="M152.172 85.464C152.843 85.464 153.429 85.5939 153.931 85.8537C154.438 86.1075 154.828 86.4761 155.1 86.9595C155.378 87.4368 155.517 87.9957 155.517 88.6362C155.517 89.2766 155.378 89.8325 155.1 90.3038C154.828 90.7751 154.438 91.1376 153.931 91.3914C153.429 91.6391 152.843 91.763 152.172 91.763H150.115V85.464H152.172ZM152.172 90.9201C152.91 90.9201 153.474 90.7207 153.867 90.3219C154.26 89.9231 154.456 89.3612 154.456 88.6362C154.456 87.9051 154.26 87.3341 153.867 86.9232C153.474 86.5123 152.91 86.3069 152.172 86.3069H151.148V90.9201H152.172Z" fill="#3A7185"/>
<path d="M205.708 10.7196C205.846 10.7196 205.979 10.7746 206.077 10.8724C206.175 10.9703 206.23 11.103 206.23 11.2414V15.4161C206.23 15.5545 206.175 15.6873 206.077 15.7851C205.979 15.883 205.846 15.938 205.708 15.938H200.706C200.429 15.938 200.164 16.048 199.968 16.2438L198.924 17.2874V11.2414C198.924 11.103 198.979 10.9703 199.077 10.8724C199.175 10.7746 199.308 10.7196 199.446 10.7196H205.708ZM199.446 10.1978C199.169 10.1978 198.904 10.3077 198.708 10.5034C198.512 10.6992 198.402 10.9646 198.402 11.2414V17.9173C198.402 17.9689 198.418 18.0194 198.446 18.0623C198.475 18.1052 198.516 18.1387 198.564 18.1584C198.611 18.1781 198.664 18.1832 198.714 18.1731C198.765 18.163 198.812 18.1381 198.848 18.1015L200.337 16.6127C200.435 16.5148 200.567 16.4598 200.706 16.4598H205.708C205.985 16.4598 206.25 16.3499 206.446 16.1541C206.642 15.9584 206.752 15.6929 206.752 15.4161V11.2414C206.752 10.9646 206.642 10.6992 206.446 10.5034C206.25 10.3077 205.985 10.1978 205.708 10.1978H199.446Z" fill="#006AB7"/>
<path d="M199.971 12.0215C199.971 11.9523 199.998 11.886 200.047 11.837C200.096 11.7881 200.163 11.7606 200.232 11.7606H204.928C204.998 11.7606 205.064 11.7881 205.113 11.837C205.162 11.886 205.189 11.9523 205.189 12.0215C205.189 12.0907 205.162 12.1571 205.113 12.206C205.064 12.255 204.998 12.2825 204.928 12.2825H200.232C200.163 12.2825 200.096 12.255 200.047 12.206C199.998 12.1571 199.971 12.0907 199.971 12.0215ZM199.971 13.3261C199.971 13.2569 199.998 13.1906 200.047 13.1416C200.096 13.0927 200.163 13.0652 200.232 13.0652H204.928C204.998 13.0652 205.064 13.0927 205.113 13.1416C205.162 13.1906 205.189 13.2569 205.189 13.3261C205.189 13.3953 205.162 13.4617 205.113 13.5106C205.064 13.5596 204.998 13.5871 204.928 13.5871H200.232C200.163 13.5871 200.096 13.5596 200.047 13.5106C199.998 13.4617 199.971 13.3953 199.971 13.3261ZM199.971 14.6307C199.971 14.5615 199.998 14.4952 200.047 14.4462C200.096 14.3973 200.163 14.3698 200.232 14.3698H202.841C202.91 14.3698 202.977 14.3973 203.026 14.4462C203.074 14.4952 203.102 14.5615 203.102 14.6307C203.102 14.6999 203.074 14.7663 203.026 14.8152C202.977 14.8642 202.91 14.8916 202.841 14.8916H200.232C200.163 14.8916 200.096 14.8642 200.047 14.8152C199.998 14.7663 199.971 14.6999 199.971 14.6307Z" fill="#006AB7"/>
<g clip-path="url(#clip0_101_3)">
<path d="M156.816 48.8564V46.449H153.445C153.22 46.449 153.04 46.6384 153.04 46.8738V55.0874C153.04 55.3228 153.22 55.5122 153.445 55.5122H159.109C159.333 55.5122 159.514 55.3228 159.514 55.0874V49.2812H157.221C156.998 49.2812 156.816 49.0901 156.816 48.8564ZM157.915 52.6801H156.816V54.0963C156.816 54.2528 156.696 54.3795 156.547 54.3795H156.007C155.858 54.3795 155.737 54.2528 155.737 54.0963V52.6801H154.639C154.398 52.6801 154.278 52.3741 154.449 52.1958L156.074 50.5018C156.186 50.3848 156.367 50.3848 156.479 50.5018L158.105 52.1958C158.276 52.3741 158.156 52.6801 157.915 52.6801ZM159.396 48.3077L157.745 46.5729C157.669 46.4932 157.567 46.449 157.459 46.449H157.356V48.7148H159.514V48.6068C159.514 48.4953 159.472 48.3873 159.396 48.3077Z" fill="#006AB7"/>
</g>
<defs>
<clipPath id="clip0_101_3">
<rect width="6.47375" height="9.06326" fill="white" transform="translate(153.04 46.449)"/>
</clipPath>
</defs>
</svg>
